<!DOCTYPE svg PUBLIC "-//W3C//DTD SVG 20010904//EN" "http://www.w3.org/TR/2001/REC-SVG-20010904/DTD/svg10.dtd">
<svg version="1.0" xmlns="http://www.w3.org/2000/svg" width="626px" height="626px" viewBox="0 0 6260 6260" preserveAspectRatio="xMidYMid meet">
<g id="layer101" fill="#020203" stroke="none">
 <path d="M2244 6249 c-17 -5 -39 -18 -49 -29 -10 -11 -23 -20 -29 -20 -12 0 -62 -75 -66 -100 -2 -8 -5 -733 -7 -1610 -1 -877 -5 -1601 -8 -1608 -4 -10 -95 -13 -447 -13 -244 -1 -463 -3 -488 -4 -77 -7 -139 -27 -175 -59 -30 -27 -36 -40 -43 -94 -10 -68 8 -143 41 -176 9 -10 17 -24 17 -31 0 -8 18 -33 39 -55 22 -23 42 -48 45 -56 3 -8 10 -14 16 -14 5 0 10 -7 10 -15 0 -8 9 -19 20 -25 11 -6 20 -17 20 -25 0 -7 13 -26 28 -42 16 -15 31 -36 35 -45 3 -10 11 -18 17 -18 5 0 10 -6 10 -13 0 -7 13 -27 29 -44 15 -17 31 -38 34 -47 4 -9 11 -16 17 -16 5 0 10 -7 10 -15 0 -8 8 -19 18 -24 10 -5 24 -22 32 -38 21 -39 83 -123 92 -123 4 0 14 -15 23 -32 8 -18 31 -50 50 -71 19 -21 35 -42 35 -47 0 -6 9 -15 20 -22 11 -7 20 -17 20 -23 0 -5 14 -23 30 -39 17 -16 30 -35 30 -43 0 -7 7 -16 15 -19 8 -4 15 -13 15 -20 0 -8 7 -17 15 -20 8 -4 15 -12 15 -18 0 -7 15 -29 34 -49 19 -21 37 -44 40 -52 3 -8 10 -15 16 -15 5 0 10 -7 10 -15 0 -8 9 -19 19 -24 10 -6 23 -23 29 -38 5 -16 26 -45 46 -67 20 -21 36 -41 36 -45 0 -4 20 -28 45 -55 25 -27 45 -55 45 -62 0 -7 9 -18 20 -24 11 -6 20 -16 20 -23 0 -7 16 -30 35 -51 19 -21 35 -42 35 -47 0 -5 9 -13 20 -19 11 -6 20 -17 20 -25 0 -8 9 -19 21 -25 11 -7 27 -26 34 -43 8 -18 27 -47 44 -65 17 -18 31 -37 31 -42 0 -5 9 -14 20 -20 11 -6 20 -17 20 -25 0 -8 9 -19 20 -25 11 -6 20 -17 20 -25 0 -7 14 -27 30 -43 17 -17 30 -35 30 -41 0 -6 9 -15 20 -21 11 -6 20 -17 20 -24 0 -8 19 -34 43 -58 56 -56 127 -143 127 -155 0 -5 18 -29 40 -53 22 -24 40 -47 40 -51 0 -5 16 -21 35 -36 19 -15 35 -33 35 -38 0 -14 55 -65 109 -101 42 -27 51 -29 142 -29 85 0 101 3 128 23 16 12 35 22 41 22 6 0 13 7 16 15 4 8 12 15 20 15 8 0 14 7 14 15 0 8 7 15 15 15 8 0 15 5 15 10 0 6 11 21 25 34 14 13 25 27 25 32 0 5 9 15 20 22 11 7 20 18 20 25 0 7 14 23 30 37 17 14 30 28 30 33 0 4 20 29 45 55 25 26 45 51 45 55 0 5 11 18 25 29 14 11 25 26 25 33 0 8 9 19 20 25 11 6 20 15 20 20 0 10 28 44 78 92 17 17 32 37 32 42 0 6 9 17 20 24 11 7 20 18 20 25 0 14 103 137 125 150 8 4 15 13 15 18 0 6 23 33 50 61 28 28 50 56 50 62 1 6 14 22 30 36 17 13 30 28 30 34 0 5 16 24 35 43 19 19 35 40 35 48 0 7 14 23 30 35 17 12 30 26 30 32 0 11 9 22 70 85 16 17 30 34 30 38 0 4 11 16 25 27 14 11 25 24 25 29 0 5 20 30 45 56 25 25 45 51 45 56 0 5 11 18 25 29 14 11 25 25 25 33 0 7 11 20 25 29 14 9 25 23 25 31 0 8 9 19 20 25 11 6 20 16 20 23 0 7 23 36 50 65 27 29 50 57 50 62 0 5 11 17 25 26 14 9 25 21 25 26 0 6 20 31 45 56 25 25 45 49 45 53 0 4 14 21 30 37 17 17 30 35 30 40 0 5 7 12 15 16 8 3 15 12 15 20 0 9 11 23 25 32 14 9 25 22 25 28 0 6 12 23 28 37 36 33 126 137 131 152 2 6 17 22 32 35 16 13 29 29 29 34 0 6 16 26 35 45 19 19 35 42 35 52 0 11 6 21 14 24 25 10 35 116 18 181 -5 16 -17 34 -27 40 -11 6 -24 17 -30 24 -23 29 -111 35 -615 41 l-515 6 -3 1594 c-1 1170 1 1597 9 1607 9 11 8 18 -1 28 -6 8 -10 23 -9 33 7 46 -80 148 -135 158 -20 4 -39 11 -42 16 -7 12 -1669 10 -1710 -2z m1679 -192 l27 -12 3 -1715 c2 -1516 4 -1715 17 -1716 8 -1 273 -2 587 -3 l573 -1 -10 -26 c-6 -14 -23 -37 -40 -51 -16 -13 -30 -31 -30 -39 0 -7 -11 -21 -25 -30 -14 -9 -25 -22 -25 -30 0 -7 -11 -21 -25 -30 -14 -9 -25 -22 -25 -28 0 -6 -12 -24 -27 -39 -47 -46 -73 -74 -73 -79 0 -3 -18 -24 -40 -47 -22 -23 -40 -48 -40 -56 0 -7 -3 -15 -7 -17 -5 -1 -30 -30 -58 -63 -67 -80 -85 -101 -117 -133 -16 -14 -28 -30 -28 -35 0 -5 -11 -18 -25 -29 -14 -11 -25 -23 -25 -27 0 -4 -22 -32 -50 -62 -27 -30 -50 -58 -50 -63 0 -4 -11 -17 -25 -28 -14 -11 -25 -23 -25 -27 0 -4 -18 -27 -40 -50 -22 -23 -40 -48 -40 -56 0 -8 -11 -22 -25 -31 -14 -9 -25 -22 -25 -30 0 -7 -11 -21 -25 -30 -14 -9 -25 -22 -25 -30 0 -7 -11 -21 -25 -30 -14 -9 -25 -22 -25 -30 0 -7 -11 -21 -25 -30 -14 -9 -25 -21 -25 -26 0 -6 -11 -19 -25 -30 -14 -11 -25 -24 -25 -30 0 -5 -11 -19 -25 -30 -13 -10 -32 -35 -41 -54 -9 -19 -23 -34 -30 -34 -8 0 -14 -5 -14 -11 0 -14 -46 -72 -124 -154 -31 -33 -56 -64 -56 -69 0 -4 -11 -17 -25 -28 -14 -11 -25 -26 -25 -33 0 -8 -9 -19 -20 -25 -11 -6 -20 -15 -20 -21 0 -6 -13 -22 -30 -36 -17 -13 -30 -30 -30 -36 0 -7 -9 -18 -20 -25 -11 -7 -20 -18 -20 -25 0 -7 -13 -23 -30 -37 -16 -14 -30 -30 -30 -36 0 -7 -7 -14 -15 -18 -8 -3 -15 -12 -15 -20 0 -9 -11 -23 -25 -32 -14 -9 -25 -22 -25 -30 0 -7 -11 -21 -25 -30 -14 -9 -25 -22 -25 -30 0 -7 -11 -21 -25 -30 -14 -9 -25 -20 -25 -25 0 -4 -20 -29 -45 -55 -25 -25 -45 -50 -45 -55 0 -19 -65 -76 -101 -89 -20 -7 -47 -10 -60 -7 -27 7 -129 98 -129 115 0 6 -16 23 -35 38 -19 14 -35 32 -35 39 0 8 -16 30 -35 51 -19 20 -35 40 -35 43 0 4 -16 24 -35 45 -19 21 -35 42 -35 47 0 4 -11 16 -25 27 -14 11 -25 25 -25 31 0 5 -9 15 -20 21 -11 6 -20 17 -20 25 0 8 -9 19 -20 25 -11 6 -20 17 -20 24 0 8 -20 36 -45 64 -25 27 -45 53 -45 57 0 4 -18 25 -40 47 -21 22 -42 49 -46 60 -6 19 -29 51 -66 90 -10 10 -18 22 -18 28 0 5 -9 15 -20 22 -11 7 -20 16 -20 21 0 4 -19 27 -41 50 -23 23 -48 57 -55 75 -8 17 -19 32 -24 32 -6 0 -10 6 -10 13 0 7 -9 18 -20 25 -11 7 -20 19 -20 27 0 8 -9 19 -20 25 -11 6 -20 17 -20 26 0 8 -7 17 -15 20 -8 4 -22 20 -30 38 -9 17 -36 54 -61 81 -25 28 -52 64 -60 81 -8 17 -31 48 -52 70 -20 21 -44 52 -52 67 -8 16 -22 33 -32 38 -10 5 -18 16 -18 23 0 8 -14 28 -30 46 -16 18 -30 36 -30 41 0 4 -9 13 -20 19 -11 6 -20 16 -20 23 0 16 -85 128 -105 139 -8 5 -15 16 -15 24 0 8 -7 17 -15 20 -8 4 -15 12 -15 20 0 8 -5 14 -10 14 -6 0 -15 11 -20 25 -5 14 -14 25 -20 25 -5 0 -10 6 -10 13 0 7 -18 32 -40 56 -22 23 -40 49 -40 56 0 8 -11 22 -25 33 -14 11 -25 24 -25 30 0 5 -18 30 -40 55 -22 25 -40 48 -40 51 0 4 -18 25 -40 47 -44 44 -84 119 -71 132 5 5 262 8 572 8 347 -1 570 3 579 9 12 7 12 12 2 22 -9 9 -12 359 -12 1649 0 910 4 1640 9 1643 4 3 8 16 7 28 -1 13 6 26 14 30 8 4 371 7 805 7 595 0 797 -3 818 -12z"/>
 </g>
<g id="layer102" fill="#202022" stroke="none">
 <path d="M2244 6249 c-31 -9 -66 -39 -46 -39 5 0 15 7 22 15 7 8 15 13 19 11 4 -3 32 1 62 9 53 13 54 13 14 13 -22 0 -54 -4 -71 -9z"/>
 <path d="M3885 6250 c44 -11 65 -11 65 0 0 6 -21 9 -47 9 -43 -1 -45 -2 -18 -9z"/>
 <path d="M3985 6230 c3 -5 11 -10 17 -10 5 0 24 -10 40 -22 30 -21 30 -21 19 -1 -6 12 -25 26 -42 32 -39 13 -42 14 -34 1z"/>
 <path d="M2129 6157 c-15 -23 -27 -49 -27 -57 -1 -8 -4 -28 -6 -45 -9 -50 -7 -3180 1 -3180 5 0 9 718 10 1595 2 877 4 1600 4 1605 4 24 7 32 18 60 7 16 20 38 28 47 9 10 12 18 7 18 -5 0 -21 -19 -35 -43z"/>
 <path d="M4120 6094 c0 -8 5 -12 10 -9 6 4 8 11 5 16 -9 14 -15 11 -15 -7z"/>
 <path d="M2299 6078 c-10 -4 -19 -9 -19 -10 0 -2 362 -2 805 0 697 2 809 0 840 -13 23 -9 34 -19 29 -26 -5 -8 -3 -9 5 -5 17 11 -12 42 -45 50 -34 9 -1591 12 -1615 4z"/>
 <path d="M2277 6043 c-4 -3 -7 -15 -7 -26 0 -25 13 -14 17 13 3 21 1 24 -10 13z"/>
 <path d="M4130 6030 c0 -19 3 -21 12 -12 9 9 9 15 0 24 -9 9 -12 7 -12 -12z"/>
 <path d="M1238 2873 c6 -2 18 -2 25 0 6 3 1 5 -13 5 -14 0 -19 -2 -12 -5z"/>
 <path d="M1105 2860 c-3 -5 -2 -10 4 -10 5 0 13 5 16 10 3 6 2 10 -4 10 -5 0 -13 -4 -16 -10z"/>
 <path d="M1045 2840 c-8 -13 5 -13 25 0 13 8 13 10 -2 10 -9 0 -20 -4 -23 -10z"/>
 <path d="M978 2808 c-23 -21 -39 -46 -43 -68 l-6 -35 20 35 c11 19 23 42 26 51 4 8 18 23 33 32 15 9 22 17 16 17 -6 0 -26 -15 -46 -32z"/>
 <path d="M4130 2808 c0 -5 219 -7 488 -6 268 1 411 4 317 5 -435 7 -805 7 -805 1z"/>
 <path d="M5140 2790 c36 -11 52 -11 45 0 -3 6 -21 10 -38 9 -31 -1 -31 -1 -7 -9z"/>
 <path d="M5205 2779 c4 -5 12 -8 18 -6 7 2 21 0 32 -5 20 -9 20 -9 1 6 -22 18 -61 22 -51 5z"/>
 <path d="M5289 2733 c5 -10 16 -27 25 -38 15 -19 15 -19 9 5 -7 29 -21 50 -35 50 -5 0 -5 -7 1 -17z"/>
 <path d="M2270 2707 c0 -16 -41 -17 -542 -20 l-543 -2 540 -2 c325 -2 546 1 555 7 12 7 12 12 2 22 -9 9 -12 9 -12 -5z"/>
 <path d="M1115 2648 c4 -18 18 -44 31 -58 l25 -25 -25 49 c-14 27 -23 53 -20 58 3 4 0 8 -6 8 -8 0 -9 -11 -5 -32z"/>
 <path d="M921 2660 c0 -10 36 -111 43 -117 15 -16 3 36 -19 77 -13 25 -24 43 -24 40z"/>
 <path d="M3957 2619 c7 -7 15 -10 18 -7 3 3 -2 9 -12 12 -14 6 -15 5 -6 -5z"/>
 <path d="M4560 2620 l-575 -5 572 -3 573 -2 -10 -26 c-6 -14 -23 -37 -40 -51 -30 -25 -38 -43 -20 -43 6 0 14 8 17 17 4 10 22 32 40 51 29 29 46 76 26 70 -5 -2 -267 -5 -583 -8z"/>
 <path d="M5325 2603 c-14 -35 -23 -83 -14 -77 5 3 9 14 9 25 0 11 5 29 11 41 6 11 9 22 6 24 -2 3 -8 -3 -12 -13z"/>
 <path d="M1207 2521 c6 -23 21 -37 30 -28 3 3 -4 16 -15 28 l-21 21 6 -21z"/>
 <path d="M987 2513 c6 -26 72 -103 73 -85 0 6 -7 20 -15 30 -9 9 -26 31 -40 47 -20 26 -23 27 -18 8z"/>
 <path d="M5273 2492 c-3 -12 -9 -22 -13 -22 -4 0 -15 -12 -25 -26 l-16 -25 24 15 c27 18 54 63 43 73 -4 4 -9 -3 -13 -15z"/>
 <path d="M5023 2463 c-23 -16 -30 -33 -14 -33 5 0 16 11 25 25 19 29 19 29 -11 8z"/>
 <path d="M1250 2464 c0 -13 87 -126 105 -136 23 -14 18 8 -7 29 -13 10 -29 30 -37 45 -16 30 -61 77 -61 62z"/>
 <path d="M1070 2407 c0 -10 7 -20 15 -23 8 -4 15 -12 15 -20 0 -7 9 -18 20 -24 11 -6 20 -16 20 -23 1 -19 38 -62 47 -54 4 5 -1 16 -13 25 -11 9 -26 28 -33 42 -7 14 -26 41 -42 60 -21 25 -29 29 -29 17z"/>
 <path d="M5166 2366 c-20 -24 -36 -49 -36 -54 0 -5 -11 -17 -24 -25 -13 -9 -26 -26 -29 -39 -5 -17 5 -10 38 27 24 28 44 54 45 58 0 5 14 20 30 34 17 13 30 29 30 34 0 20 -19 7 -54 -35z"/>
 <path d="M4957 2393 c-4 -3 -7 -13 -7 -21 0 -12 3 -12 15 -2 8 7 15 16 15 21 0 11 -14 12 -23 2z"/>
 <path d="M4894 2308 l-17 -33 27 24 c27 25 33 41 16 41 -5 0 -17 -15 -26 -32z"/>
 <path d="M1390 2275 c0 -8 87 -120 104 -135 11 -8 16 -9 16 -1 0 6 -5 11 -10 11 -6 0 -15 11 -20 25 -5 14 -14 25 -20 25 -5 0 -10 5 -10 10 0 14 -42 70 -52 70 -4 0 -8 -2 -8 -5z"/>
 <path d="M4854 2265 c-4 -11 -16 -26 -25 -33 -29 -21 -62 -72 -47 -72 8 0 22 15 33 33 10 17 28 39 38 48 11 8 17 22 15 30 -4 11 -8 9 -14 -6z"/>
 <path d="M1202 2228 c5 -15 28 -23 28 -10 0 5 -7 13 -16 16 -10 4 -14 1 -12 -6z"/>
 <path d="M5043 2213 c-3 -10 -8 -22 -10 -28 -3 -5 3 -1 11 9 16 20 21 36 11 36 -3 0 -8 -8 -12 -17z"/>
 <path d="M1230 2194 c1 -17 50 -70 50 -53 0 8 -11 26 -25 39 -14 13 -25 19 -25 14z"/>
 <path d="M4750 2129 c0 -5 5 -7 10 -4 6 3 10 8 10 11 0 2 -4 4 -10 4 -5 0 -10 -5 -10 -11z"/>
 <path d="M4984 2128 c-4 -7 -3 -8 4 -4 12 7 16 16 8 16 -3 0 -8 -5 -12 -12z"/>
 <path d="M1290 2116 c0 -8 5 -18 10 -21 6 -3 10 1 10 9 0 8 -4 18 -10 21 -5 3 -10 -1 -10 -9z"/>
 <path d="M1512 2109 c2 -7 10 -15 17 -17 8 -3 12 1 9 9 -2 7 -10 15 -17 17 -8 3 -12 -1 -9 -9z"/>
 <path d="M4706 2073 c-6 -14 -5 -15 5 -6 7 7 10 15 7 18 -3 3 -9 -2 -12 -12z"/>
 <path d="M4936 2073 c-6 -14 -5 -15 5 -6 7 7 10 15 7 18 -3 3 -9 -2 -12 -12z"/>
 <path d="M1320 2074 c0 -4 11 -17 25 -30 29 -27 32 -23 9 11 -15 23 -34 33 -34 19z"/>
 <path d="M1550 2063 c0 -4 16 -25 35 -46 19 -21 35 -41 35 -45 0 -4 9 -15 20 -25 32 -27 23 -6 -25 58 -43 57 -65 77 -65 58z"/>
 <path d="M4891 2032 c-13 -14 -31 -38 -40 -52 -9 -14 -26 -33 -38 -43 -13 -10 -23 -23 -23 -28 0 -19 17 -7 46 32 16 22 42 53 57 70 16 16 27 33 25 39 -2 5 -14 -3 -27 -18z"/>
 <path d="M4654 2016 c-18 -18 -37 -44 -44 -57 -9 -19 -6 -18 17 8 48 53 65 75 61 78 -2 2 -17 -11 -34 -29z"/>
 <path d="M1380 1994 c0 -9 75 -104 82 -104 4 0 14 -15 23 -32 8 -18 31 -50 50 -71 19 -21 35 -42 35 -47 0 -6 9 -15 20 -22 11 -7 20 -17 20 -23 0 -5 14 -23 30 -39 17 -16 30 -35 30 -43 0 -7 7 -16 15 -19 8 -4 15 -13 15 -20 0 -8 7 -17 15 -20 8 -4 15 -11 15 -18 1 -16 59 -84 60 -69 0 11 -44 72 -140 197 -8 11 -25 30 -37 43 -13 13 -23 27 -23 30 0 6 -78 112 -90 123 -3 3 -16 19 -28 36 -22 32 -92 106 -92 98z"/>
 <path d="M4572 1928 c-7 -7 -12 -16 -12 -20 0 -5 -12 -19 -26 -32 -16 -13 -24 -28 -21 -37 4 -10 7 -8 12 8 4 12 17 29 30 37 12 8 25 24 28 35 6 24 5 25 -11 9z"/>
 <path d="M1670 1903 c0 -5 16 -25 35 -46 19 -21 35 -42 35 -46 0 -5 6 -14 14 -20 26 -22 6 27 -24 59 -15 16 -30 37 -34 45 -5 15 -26 21 -26 8z"/>
 <path d="M4752 1867 c-27 -29 -28 -41 -3 -28 10 6 21 20 24 31 7 25 5 25 -21 -3z"/>
 <path d="M4452 1781 c-44 -52 -49 -61 -32 -61 6 0 15 11 20 24 5 14 18 29 28 35 15 8 38 51 28 51 -2 0 -22 -22 -44 -49z"/>
 <path d="M4685 1784 l-16 -25 25 16 c26 17 34 35 17 35 -5 0 -16 -12 -26 -26z"/>
 <path d="M1780 1774 c0 -6 7 -17 15 -24 8 -7 15 -18 15 -25 0 -7 14 -27 30 -45 17 -18 30 -35 30 -37 0 -11 74 -102 78 -98 3 3 -1 13 -9 22 -8 10 -21 30 -28 45 -8 15 -31 45 -52 67 -22 22 -39 44 -39 48 -1 13 -40 59 -40 47z"/>
 <path d="M4640 1735 c-20 -24 -6 -28 15 -5 10 11 13 20 8 20 -6 0 -16 -7 -23 -15z"/>
 <path d="M4375 1690 c-18 -20 -16 -38 3 -26 8 5 24 46 18 46 -2 0 -11 -9 -21 -20z"/>
 <path d="M4600 1680 c-8 -5 -11 -12 -7 -16 4 -4 13 -2 19 4 15 15 7 24 -12 12z"/>
 <path d="M4312 1614 c-17 -20 -33 -45 -35 -56 -5 -19 -5 -19 14 -2 10 9 19 23 19 29 0 7 6 15 14 18 11 5 30 47 21 47 -2 0 -17 -16 -33 -36z"/>
 <path d="M4557 1629 c-10 -11 -16 -24 -12 -27 8 -9 38 24 34 37 -3 7 -12 3 -22 -10z"/>
 <path d="M4501 1562 c-12 -18 -18 -32 -13 -32 15 0 44 38 40 51 -2 7 -14 -1 -27 -19z"/>
 <path d="M1960 1526 c0 -8 8 -21 19 -28 10 -7 21 -23 25 -35 6 -19 36 -41 36 -26 0 6 -72 103 -77 103 -2 0 -3 -6 -3 -14z"/>
 <path d="M4235 1519 c-4 -6 -5 -13 -2 -16 7 -7 27 6 27 18 0 12 -17 12 -25 -2z"/>
 <path d="M4413 1456 c-29 -36 -53 -68 -53 -71 0 -4 -11 -16 -25 -27 -26 -20 -33 -38 -15 -38 6 0 14 8 17 18 4 9 17 25 30 35 13 10 23 23 23 28 0 5 20 30 45 56 43 44 54 63 38 63 -5 0 -32 -29 -60 -64z"/>
 <path d="M4201 1471 c-13 -10 -22 -24 -19 -31 3 -9 12 -2 27 18 26 37 25 38 -8 13z"/>
 <path d="M1800 1441 c0 -6 4 -13 10 -16 6 -3 7 1 4 9 -7 18 -14 21 -14 7z"/>
 <path d="M1830 1406 c0 -8 5 -18 10 -21 6 -3 10 1 10 9 0 8 -4 18 -10 21 -5 3 -10 -1 -10 -9z"/>
 <path d="M2049 1401 c15 -27 31 -36 31 -17 0 8 -9 20 -21 26 -19 11 -20 10 -10 -9z"/>
 <path d="M4137 1403 c-4 -3 -7 -13 -7 -21 0 -12 3 -12 15 -2 8 7 15 16 15 21 0 11 -14 12 -23 2z"/>
 <path d="M1877 1343 c7 -29 73 -101 73 -81 0 9 -8 23 -17 30 -10 7 -24 25 -32 41 -16 30 -32 37 -24 10z"/>
 <path d="M2100 1351 c0 -5 5 -13 10 -16 6 -3 10 -2 10 4 0 5 -4 13 -10 16 -5 3 -10 2 -10 -4z"/>
 <path d="M4087 1344 c-4 -4 -7 -14 -7 -23 0 -11 3 -12 11 -4 6 6 10 16 7 23 -2 6 -7 8 -11 4z"/>
 <path d="M4046 1291 c-10 -11 -16 -26 -14 -33 3 -8 12 0 22 20 19 37 17 40 -8 13z"/>
 <path d="M2140 1291 c0 -6 5 -13 10 -16 6 -3 10 1 10 9 0 9 -4 16 -10 16 -5 0 -10 -4 -10 -9z"/>
 <path d="M4270 1286 c-6 -9 -10 -21 -8 -28 3 -8 9 -4 17 10 15 28 9 39 -9 18z"/>
 <path d="M2176 1257 c3 -10 9 -15 12 -12 3 3 0 11 -7 18 -10 9 -11 8 -5 -6z"/>
 <path d="M3993 1228 c-23 -26 -36 -58 -24 -58 5 0 11 8 14 18 4 9 14 27 23 40 9 12 14 22 12 22 -2 0 -14 -10 -25 -22z"/>
 <path d="M1960 1235 c1 -17 49 -70 57 -62 4 4 -7 22 -25 40 -18 17 -32 27 -32 22z"/>
 <path d="M4221 1207 c-13 -21 -12 -21 5 -5 10 10 16 20 13 22 -3 3 -11 -5 -18 -17z"/>
 <path d="M2220 1182 c0 -12 19 -26 26 -19 2 2 -2 10 -11 17 -9 8 -15 8 -15 2z"/>
 <path d="M2046 1121 c8 -16 21 -32 29 -35 8 -3 15 -11 15 -18 0 -7 14 -29 31 -48 l30 -35 -21 41 c-11 23 -30 50 -42 60 -11 11 -24 29 -29 42 -5 12 -13 22 -18 22 -5 0 -3 -13 5 -29z"/>
 <path d="M2260 1131 c11 -22 30 -29 30 -11 0 5 -9 14 -21 20 -19 11 -20 10 -9 -9z"/>
 <path d="M3920 1139 c0 -5 5 -7 10 -4 6 3 10 8 10 11 0 2 -4 4 -10 4 -5 0 -10 -5 -10 -11z"/>
 <path d="M4150 1125 c-13 -14 -19 -25 -13 -25 6 0 18 11 27 25 9 14 15 25 13 25 -2 0 -14 -11 -27 -25z"/>
 <path d="M3903 1108 c-22 -29 -24 -41 -3 -20 12 13 20 25 17 28 -2 2 -9 -1 -14 -8z"/>
 <path d="M2310 1082 c6 -13 14 -21 18 -18 3 4 -2 14 -12 24 -18 16 -18 16 -6 -6z"/>
 <path d="M4074 1038 l-17 -33 26 25 c28 26 34 40 17 40 -5 0 -17 -15 -26 -32z"/>
 <path d="M3853 1048 c-23 -30 -24 -41 -2 -21 12 12 20 25 17 28 -3 3 -10 0 -15 -7z"/>
 <path d="M2341 1040 c0 -8 15 -31 34 -50 37 -36 48 -35 15 2 -10 13 -26 32 -34 43 -11 15 -15 16 -15 5z"/>
 <path d="M3777 966 c-38 -46 -52 -81 -22 -56 8 7 15 18 15 24 0 6 8 16 19 23 14 9 37 53 27 53 -1 0 -18 -20 -39 -44z"/>
 <path d="M4008 965 c-39 -44 -44 -55 -30 -55 12 0 74 79 70 89 -2 5 -20 -10 -40 -34z"/>
 <path d="M2160 970 c0 -5 9 -14 21 -20 19 -11 20 -10 9 9 -11 22 -30 29 -30 11z"/>
 <path d="M2202 919 c2 -7 10 -15 17 -17 8 -3 12 1 9 9 -2 7 -10 15 -17 17 -8 3 -12 -1 -9 -9z"/>
 <path d="M2428 915 c20 -35 72 -90 72 -76 0 7 -19 32 -42 55 -22 22 -36 32 -30 21z"/>
 <path d="M3705 880 c-18 -20 -16 -38 3 -26 8 5 24 46 18 46 -2 0 -11 -9 -21 -20z"/>
 <path d="M3925 869 c-4 -6 -5 -13 -2 -16 7 -7 27 6 27 18 0 12 -17 12 -25 -2z"/>
 <path d="M2260 843 c1 -5 14 -24 30 -43 22 -25 30 -30 30 -17 0 10 -6 20 -14 23 -8 3 -16 14 -19 25 -5 18 -27 28 -27 12z"/>
 <path d="M3654 815 c-4 -11 -21 -30 -36 -43 -27 -23 -36 -42 -20 -42 14 1 74 80 69 93 -3 7 -8 5 -13 -8z"/>
 <path d="M2510 812 c0 -7 6 -15 14 -18 8 -3 19 -18 26 -34 11 -27 40 -49 40 -31 0 14 -79 97 -80 83z"/>
 <path d="M3865 793 l-18 -28 27 24 c28 26 31 31 17 31 -5 0 -17 -12 -26 -27z"/>
 <path d="M2330 752 c0 -7 7 -15 16 -19 8 -3 20 -16 25 -29 4 -13 13 -24 19 -24 18 0 11 16 -25 50 -19 19 -35 28 -35 22z"/>
 <path d="M3810 731 c-5 -11 -17 -27 -26 -36 -9 -9 -14 -19 -10 -22 7 -8 36 16 36 30 0 6 7 19 17 29 9 10 11 18 5 18 -6 0 -16 -9 -22 -19z"/>
 <path d="M3562 708 c-14 -14 -16 -42 -3 -34 7 5 23 46 17 46 -1 0 -7 -5 -14 -12z"/>
 <path d="M2600 693 c1 -5 16 -26 35 -47 24 -27 35 -34 35 -22 0 9 -7 19 -16 23 -8 3 -20 16 -25 29 -8 22 -30 34 -29 17z"/>
 <path d="M2410 654 c1 -12 39 -61 40 -51 0 5 -9 20 -20 34 -11 14 -20 22 -20 17z"/>
 <path d="M3507 639 c-18 -21 -17 -36 1 -25 8 5 24 46 18 46 -1 0 -10 -9 -19 -21z"/>
 <path d="M3743 643 c-3 -10 -8 -22 -11 -28 -3 -5 4 -1 16 9 24 20 28 36 12 36 -6 0 -13 -8 -17 -17z"/>
 <path d="M2688 590 c5 -13 14 -26 20 -28 19 -6 14 13 -8 33 -20 18 -21 18 -12 -5z"/>
 <path d="M2468 580 c5 -13 14 -26 20 -28 19 -6 14 13 -8 33 -20 18 -21 18 -12 -5z"/>
 <path d="M3465 589 c-4 -6 -5 -13 -2 -16 7 -7 27 6 27 18 0 12 -17 12 -25 -2z"/>
 <path d="M3672 559 c-19 -22 -31 -45 -28 -52 3 -7 7 -3 11 11 4 12 11 22 16 22 10 0 44 49 38 55 -2 2 -19 -14 -37 -36z"/>
 <path d="M2730 538 c0 -10 9 -23 20 -30 11 -7 20 -18 20 -25 0 -6 5 -15 10 -18 21 -13 8 21 -20 55 -21 26 -30 30 -30 18z"/>
 <path d="M2510 528 c1 -20 48 -73 57 -64 4 4 -2 15 -14 23 -13 9 -23 21 -23 29 0 7 -4 16 -10 19 -5 3 -10 0 -10 -7z"/>
 <path d="M3417 533 c-4 -3 -7 -13 -7 -21 0 -12 3 -12 15 -2 8 7 15 16 15 21 0 11 -14 12 -23 2z"/>
 <path d="M3581 451 c-23 -27 -41 -53 -41 -57 0 -5 -9 -15 -20 -22 -11 -7 -20 -20 -20 -29 0 -11 11 -3 35 23 19 21 34 43 35 48 0 4 11 17 24 27 19 15 42 59 31 59 -2 0 -22 -22 -44 -49z"/>
 <path d="M3367 473 c-4 -3 -7 -13 -7 -21 0 -12 3 -12 15 -2 8 7 15 16 15 21 0 11 -14 12 -23 2z"/>
 <path d="M2807 442 c3 -13 12 -26 19 -29 8 -3 14 -11 14 -19 0 -8 5 -14 10 -14 17 0 11 14 -19 50 -26 30 -29 32 -24 12z"/>
 <path d="M2600 422 c6 -13 14 -21 18 -18 3 4 -2 14 -12 24 -18 16 -18 16 -6 -6z"/>
 <path d="M3317 413 c-4 -3 -7 -13 -7 -21 0 -12 3 -12 15 -2 8 7 15 16 15 21 0 11 -14 12 -23 2z"/>
 <path d="M2640 374 c0 -6 9 -19 20 -29 11 -10 20 -24 20 -31 0 -7 4 -15 9 -18 5 -4 7 2 4 11 -6 23 -53 82 -53 67z"/>
 <path d="M2865 360 c3 -5 8 -10 11 -10 3 0 2 5 -1 10 -3 6 -8 10 -11 10 -3 0 -2 -4 1 -10z"/>
 <path d="M3253 333 c-44 -56 -50 -85 -9 -39 29 33 52 76 41 76 -2 0 -16 -17 -32 -37z"/>
 <path d="M2906 320 c10 -20 19 -29 22 -21 2 7 -5 23 -17 35 l-22 21 17 -35z"/>
 <path d="M3465 300 c-3 -5 -1 -10 4 -10 6 0 11 5 11 10 0 6 -2 10 -4 10 -3 0 -8 -4 -11 -10z"/>
 <path d="M2710 276 c0 -8 11 -23 25 -34 14 -11 25 -24 25 -29 0 -5 12 -20 26 -34 l26 -24 -22 38 c-12 21 -31 42 -41 48 -11 5 -19 16 -19 24 0 7 -4 17 -10 20 -5 3 -10 -1 -10 -9z"/>
 <path d="M3444 268 c-4 -7 -3 -8 4 -4 12 7 16 16 8 16 -3 0 -8 -5 -12 -12z"/>
 <path d="M2966 252 c8 -27 30 -45 81 -65 41 -16 44 -16 75 4 18 12 24 18 13 14 -66 -24 -90 -18 -138 32 -28 28 -35 32 -31 15z"/>
 <path d="M3184 248 c-4 -7 -3 -8 4 -4 7 4 12 9 12 12 0 8 -9 4 -16 -8z"/>
 <path d="M3401 217 c-13 -21 -12 -21 5 -5 10 10 16 20 13 22 -3 3 -11 -5 -18 -17z"/>
 <path d="M3365 180 c-3 -5 -1 -10 4 -10 6 0 11 5 11 10 0 6 -2 10 -4 10 -3 0 -8 -4 -11 -10z"/>
 <path d="M3344 148 c-4 -7 -3 -8 4 -4 12 7 16 16 8 16 -3 0 -8 -5 -12 -12z"/>
 <path d="M2830 134 c0 -13 55 -64 106 -98 27 -17 59 -28 95 -31 l54 -5 -50 14 c-27 8 -53 12 -56 10 -4 -2 -27 14 -52 36 -25 22 -50 40 -55 40 -6 0 -18 10 -26 22 -9 12 -16 18 -16 12z"/>
 <path d="M3316 131 c-4 -7 -5 -15 -2 -18 9 -9 19 4 14 18 -4 11 -6 11 -12 0z"/>
 <path d="M3274 90 c-22 -9 -40 -40 -23 -40 5 0 12 7 15 15 4 8 12 15 20 15 8 0 14 5 14 10 0 6 -1 10 -2 9 -2 0 -12 -4 -24 -9z"/>
 <path d="M3197 33 c-4 -3 -24 -8 -44 -10 -47 -5 -80 -22 -43 -23 33 0 98 18 105 30 7 11 -8 14 -18 3z"/>
 </g>
<g id="layer103" fill="#dfdfe1" stroke="none">
 <path d="M2214 6234 c-18 -14 -18 -14 6 -3 31 14 36 19 24 19 -6 0 -19 -7 -30 -16z"/>
 <path d="M4011 6226 c2 -2 15 -9 29 -15 24 -11 24 -11 6 3 -16 13 -49 24 -35 12z"/>
 <path d="M2126 6155 c-15 -25 -27 -47 -25 -49 2 -2 18 19 36 45 17 27 28 49 25 49 -4 0 -20 -20 -36 -45z"/>
 <path d="M4125 6100 c3 -5 8 -10 11 -10 3 0 2 5 -1 10 -3 6 -8 10 -11 10 -3 0 -2 -4 1 -10z"/>
 <path d="M2303 6072 c-6 -4 352 -7 795 -7 444 0 818 -4 832 -9 21 -7 23 -6 12 5 -11 12 -154 14 -820 16 -444 2 -812 0 -819 -5z"/>
 <path d="M2090 6060 c0 -7 3 -10 7 -7 3 4 3 10 0 14 -4 3 -7 0 -7 -7z"/>
 <path d="M2277 6043 c-4 -3 -7 -15 -7 -26 0 -25 13 -14 17 13 3 21 1 24 -10 13z"/>
 <path d="M4130 6030 c0 -19 3 -21 12 -12 9 9 9 15 0 24 -9 9 -12 7 -12 -12z"/>
 <path d="M2084 2878 c-4 -7 -3 -8 4 -4 12 7 16 16 8 16 -3 0 -8 -5 -12 -12z"/>
 <path d="M1238 2873 c6 -2 18 -2 25 0 6 3 1 5 -13 5 -14 0 -19 -2 -12 -5z"/>
 <path d="M1113 2863 c4 -3 10 -3 14 0 3 4 0 7 -7 7 -7 0 -10 -3 -7 -7z"/>
 <path d="M990 2819 c-17 -13 -18 -17 -5 -10 33 17 51 31 40 31 -5 0 -21 -10 -35 -21z"/>
 <path d="M4130 2808 c0 -5 219 -7 488 -6 268 1 411 4 317 5 -435 7 -805 7 -805 1z"/>
 <path d="M947 2783 c-4 -3 -7 -11 -7 -17 0 -6 5 -5 12 2 6 6 9 14 7 17 -3 3 -9 2 -12 -2z"/>
 <path d="M5221 2786 c2 -2 15 -9 29 -15 24 -11 24 -11 6 3 -16 13 -49 24 -35 12z"/>
 <path d="M5297 2730 c9 -11 19 -17 21 -15 6 6 -18 35 -29 35 -5 0 -1 -9 8 -20z"/>
 <path d="M2270 2707 c0 -16 -41 -17 -542 -20 l-543 -2 540 -2 c325 -2 546 1 555 7 12 7 12 12 2 22 -9 9 -12 9 -12 -5z"/>
 <path d="M1110 2666 c0 -8 9 -24 20 -37 l20 -24 -14 29 c-8 16 -13 33 -10 38 3 4 0 8 -5 8 -6 0 -11 -6 -11 -14z"/>
 <path d="M920 2650 c0 -7 3 -10 7 -7 3 4 3 10 0 14 -4 3 -7 0 -7 -7z"/>
 <path d="M3957 2619 c7 -7 15 -10 18 -7 3 3 -2 9 -12 12 -14 6 -15 5 -6 -5z"/>
 <path d="M4557 2613 c539 -3 572 -4 567 -21 -5 -14 -4 -15 5 -2 6 8 11 18 11 23 0 4 -260 6 -577 5 l-578 -3 572 -2z"/>
 <path d="M5330 2610 c0 -7 3 -10 7 -7 3 4 3 10 0 14 -4 3 -7 0 -7 -7z"/>
 <path d="M950 2561 c0 -5 5 -13 10 -16 6 -3 10 -2 10 4 0 5 -4 13 -10 16 -5 3 -10 2 -10 -4z"/>
 <path d="M5069 2523 l-24 -28 28 24 c15 14 27 26 27 28 0 8 -8 1 -31 -24z"/>
 <path d="M5306 2533 c-6 -14 -5 -15 5 -6 7 7 10 15 7 18 -3 3 -9 -2 -12 -12z"/>
 <path d="M1205 2530 c3 -5 8 -10 11 -10 3 0 2 5 -1 10 -3 6 -8 10 -11 10 -3 0 -2 -4 1 -10z"/>
 <path d="M1225 2500 c3 -5 8 -10 11 -10 2 0 4 5 4 10 0 6 -5 10 -11 10 -5 0 -7 -4 -4 -10z"/>
 <path d="M1007 2474 c12 -17 30 -37 40 -45 13 -10 12 -6 -4 17 -12 17 -30 37 -40 45 -13 10 -12 6 4 -17z"/>
 <path d="M5266 2468 l-18 -33 21 25 c18 22 26 40 18 40 -1 0 -11 -15 -21 -32z"/>
 <path d="M1268 2444 c6 -11 20 -28 33 -39 l23 -20 -23 32 c-26 38 -49 56 -33 27z"/>
 <path d="M5004 2448 c-4 -7 -3 -8 4 -4 7 4 12 9 12 12 0 8 -9 4 -16 -8z"/>
 <path d="M1070 2401 c0 -6 4 -13 10 -16 6 -3 7 1 4 9 -7 18 -14 21 -14 7z"/>
 <path d="M5190 2378 l-23 -33 28 27 c16 15 26 30 23 33 -3 4 -16 -9 -28 -27z"/>
 <path d="M4955 2389 c-4 -6 -5 -12 -2 -15 2 -3 7 2 10 11 7 17 1 20 -8 4z"/>
 <path d="M1339 2353 c12 -24 31 -39 31 -25 0 5 -10 17 -21 28 -22 19 -22 19 -10 -3z"/>
 <path d="M1105 2350 c3 -5 8 -10 11 -10 3 0 2 5 -1 10 -3 6 -8 10 -11 10 -3 0 -2 -4 1 -10z"/>
 <path d="M4904 2328 c-4 -7 -3 -8 4 -4 7 4 12 9 12 12 0 8 -9 4 -16 -8z"/>
 <path d="M5145 2325 c-6 -7 -25 -32 -43 -54 -19 -23 -32 -41 -29 -41 7 0 89 101 85 105 -2 2 -8 -2 -13 -10z"/>
 <path d="M1155 2287 c10 -15 20 -25 23 -22 3 3 -5 16 -17 28 l-23 22 17 -28z"/>
 <path d="M1400 2279 c0 -3 11 -20 25 -39 14 -19 25 -30 25 -24 -1 10 -50 73 -50 63z"/>
 <path d="M4854 2268 c-4 -7 -3 -8 4 -4 12 7 16 16 8 16 -3 0 -8 -5 -12 -12z"/>
 <path d="M1200 2231 c0 -6 4 -13 10 -16 6 -3 7 1 4 9 -7 18 -14 21 -14 7z"/>
 <path d="M4814 2218 c-40 -46 -50 -64 -20 -38 25 23 52 60 43 60 -2 0 -12 -10 -23 -22z"/>
 <path d="M1230 2191 c0 -5 7 -15 17 -22 15 -13 15 -12 4 9 -12 23 -21 28 -21 13z"/>
 <path d="M1465 2190 c3 -5 8 -10 11 -10 3 0 2 5 -1 10 -3 6 -8 10 -11 10 -3 0 -2 -4 1 -10z"/>
 <path d="M5034 2188 c-4 -7 -3 -8 4 -4 7 4 12 9 12 12 0 8 -9 4 -16 -8z"/>
 <path d="M1265 2140 c3 -5 8 -10 11 -10 3 0 2 5 -1 10 -3 6 -8 10 -11 10 -3 0 -2 -4 1 -10z"/>
 <path d="M1495 2140 c3 -5 8 -10 11 -10 2 0 4 5 4 10 0 6 -5 10 -11 10 -5 0 -7 -4 -4 -10z"/>
 <path d="M4984 2128 c-4 -7 -3 -8 4 -4 12 7 16 16 8 16 -3 0 -8 -5 -12 -12z"/>
 <path d="M1290 2111 c0 -6 4 -13 10 -16 6 -3 7 1 4 9 -7 18 -14 21 -14 7z"/>
 <path d="M1526 2107 c3 -10 9 -15 12 -12 3 3 0 11 -7 18 -10 9 -11 8 -5 -6z"/>
 <path d="M4936 2073 c-6 -14 -5 -15 5 -6 7 7 10 15 7 18 -3 3 -9 -2 -12 -12z"/>
 <path d="M1320 2071 c0 -5 5 -13 10 -16 6 -3 10 -2 10 4 0 5 -4 13 -10 16 -5 3 -10 2 -10 -4z"/>
 <path d="M1561 2065 c0 -5 18 -30 40 -55 23 -25 32 -31 20 -15 -35 51 -61 81 -60 70z"/>
 <path d="M4903 2038 c-22 -29 -24 -41 -3 -20 12 13 20 25 17 28 -2 2 -9 -1 -14 -8z"/>
 <path d="M1380 1996 c0 -11 73 -106 78 -101 2 2 -14 27 -37 56 -22 28 -41 49 -41 45z"/>
 <path d="M4624 1988 c-4 -7 -3 -8 4 -4 7 4 12 9 12 12 0 8 -9 4 -16 -8z"/>
 <path d="M4840 1958 c-12 -22 -12 -22 6 -6 10 10 15 20 12 24 -4 3 -12 -5 -18 -18z"/>
 <path d="M1646 1947 c3 -10 9 -15 12 -12 3 3 0 11 -7 18 -10 9 -11 8 -5 -6z"/>
 <path d="M4569 1923 c-13 -16 -12 -17 4 -4 9 7 17 15 17 17 0 8 -8 3 -21 -13z"/>
 <path d="M4800 1909 c0 -5 5 -7 10 -4 6 3 10 8 10 11 0 2 -4 4 -10 4 -5 0 -10 -5 -10 -11z"/>
 <path d="M1686 1897 c3 -10 9 -15 12 -12 3 3 0 11 -7 18 -10 9 -11 8 -5 -6z"/>
 <path d="M4524 1868 l-19 -23 23 19 c12 11 22 21 22 23 0 8 -8 2 -26 -19z"/>
 <path d="M1480 1865 c0 -8 71 -105 77 -105 7 0 1 9 -37 60 -22 29 -40 50 -40 45z"/>
 <path d="M1719 1852 c5 -10 18 -25 28 -33 12 -10 11 -5 -6 19 -24 35 -38 43 -22 14z"/>
 <path d="M4756 1853 c-6 -14 -5 -15 5 -6 7 7 10 15 7 18 -3 3 -9 -2 -12 -12z"/>
 <path d="M4452 1781 c-23 -27 -42 -53 -42 -58 0 -8 32 28 71 80 33 44 15 31 -29 -22z"/>
 <path d="M4706 1793 c-6 -14 -5 -15 5 -6 7 7 10 15 7 18 -3 3 -9 -2 -12 -12z"/>
 <path d="M1780 1772 c0 -5 10 -17 22 -28 l21 -19 -18 28 c-18 28 -25 33 -25 19z"/>
 <path d="M1570 1741 c0 -5 7 -15 17 -22 15 -13 15 -12 4 9 -12 23 -21 28 -21 13z"/>
 <path d="M4375 1690 c-10 -11 -16 -22 -13 -25 3 -3 13 6 22 20 20 30 16 32 -9 5z"/>
 <path d="M1849 1685 c5 -11 24 -36 41 -55 27 -30 29 -31 11 -5 -32 47 -64 84 -52 60z"/>
 <path d="M1615 1680 c3 -5 8 -10 11 -10 3 0 2 5 -1 10 -3 6 -8 10 -11 10 -3 0 -2 -4 1 -10z"/>
 <path d="M4606 1673 c-6 -14 -5 -15 5 -6 7 7 10 15 7 18 -3 3 -9 -2 -12 -12z"/>
 <path d="M4324 1628 c-11 -13 -26 -32 -34 -43 -14 -19 -14 -19 3 -6 18 14 62 71 54 71 -2 0 -12 -10 -23 -22z"/>
 <path d="M4560 1618 c-12 -22 -12 -22 6 -6 10 10 15 20 12 24 -4 3 -12 -5 -18 -18z"/>
 <path d="M1670 1611 c0 -6 4 -13 10 -16 6 -3 7 1 4 9 -7 18 -14 21 -14 7z"/>
 <path d="M1700 1571 c0 -6 4 -13 10 -16 6 -3 7 1 4 9 -7 18 -14 21 -14 7z"/>
 <path d="M4506 1552 l-19 -27 24 22 c12 12 21 24 18 27 -2 2 -13 -8 -23 -22z"/>
 <path d="M1730 1531 c0 -5 7 -15 17 -22 15 -13 15 -12 4 9 -12 23 -21 28 -21 13z"/>
 <path d="M1965 1530 c3 -5 8 -10 11 -10 3 0 2 5 -1 10 -3 6 -8 10 -11 10 -3 0 -2 -4 1 -10z"/>
 <path d="M4234 1518 c-4 -7 -3 -8 4 -4 12 7 16 16 8 16 -3 0 -8 -5 -12 -12z"/>
 <path d="M4450 1487 c-28 -33 -43 -57 -37 -57 6 0 69 81 66 84 -2 2 -15 -10 -29 -27z"/>
 <path d="M2006 1475 c16 -22 29 -42 31 -44 2 -2 3 0 3 5 0 5 -14 25 -31 44 l-30 35 27 -40z"/>
 <path d="M1760 1486 c0 -2 8 -10 18 -17 15 -13 16 -12 3 4 -13 16 -21 21 -21 13z"/>
 <path d="M4185 1459 c-4 -6 -5 -12 -2 -15 2 -3 7 2 10 11 7 17 1 20 -8 4z"/>
 <path d="M1800 1441 c0 -6 4 -13 10 -16 6 -3 7 1 4 9 -7 18 -14 21 -14 7z"/>
 <path d="M1830 1401 c0 -6 4 -13 10 -16 6 -3 7 1 4 9 -7 18 -14 21 -14 7z"/>
 <path d="M2065 1400 c3 -5 8 -10 11 -10 3 0 2 5 -1 10 -3 6 -8 10 -11 10 -3 0 -2 -4 1 -10z"/>
 <path d="M4135 1399 c-4 -6 -5 -12 -2 -15 2 -3 7 2 10 11 7 17 1 20 -8 4z"/>
 <path d="M4366 1382 l-19 -27 24 22 c12 12 21 24 18 27 -2 2 -13 -8 -23 -22z"/>
 <path d="M2100 1351 c0 -5 5 -13 10 -16 6 -3 10 -2 10 4 0 5 -4 13 -10 16 -5 3 -10 2 -10 -4z"/>
 <path d="M4084 1338 c-4 -7 -3 -8 4 -4 7 4 12 9 12 12 0 8 -9 4 -16 -8z"/>
 <path d="M4326 1333 c-6 -14 -5 -15 5 -6 7 7 10 15 7 18 -3 3 -9 -2 -12 -12z"/>
 <path d="M1880 1333 c0 -5 10 -18 23 -29 l22 -19 -20 25 c-11 14 -21 27 -22 29 -2 2 -3 0 -3 -6z"/>
 <path d="M4047 1292 c-19 -20 -23 -37 -7 -27 10 6 33 45 27 45 -2 0 -11 -8 -20 -18z"/>
 <path d="M2150 1290 c0 -7 3 -10 7 -7 3 4 3 10 0 14 -4 3 -7 0 -7 -7z"/>
 <path d="M1920 1276 c0 -2 8 -10 18 -17 15 -13 16 -12 3 4 -13 16 -21 21 -21 13z"/>
 <path d="M2176 1257 c3 -10 9 -15 12 -12 3 3 0 11 -7 18 -10 9 -11 8 -5 -6z"/>
 <path d="M4264 1258 c-4 -7 -3 -8 4 -4 7 4 12 9 12 12 0 8 -9 4 -16 -8z"/>
 <path d="M3992 1227 c-25 -27 -30 -46 -6 -27 15 13 38 50 31 50 -2 0 -13 -10 -25 -23z"/>
 <path d="M1960 1234 c1 -10 50 -73 50 -63 0 3 -11 20 -25 39 -14 19 -25 30 -25 24z"/>
 <path d="M4221 1207 c-13 -21 -12 -21 5 -5 10 10 16 20 13 22 -3 3 -11 -5 -18 -17z"/>
 <path d="M3920 1139 c0 -5 5 -7 10 -4 6 3 10 8 10 11 0 2 -4 4 -10 4 -5 0 -10 -5 -10 -11z"/>
 <path d="M4150 1125 c-13 -14 -19 -25 -13 -25 6 0 18 11 27 25 9 14 15 25 13 25 -2 0 -14 -11 -27 -25z"/>
 <path d="M2276 1127 c3 -10 9 -15 12 -12 3 3 0 11 -7 18 -10 9 -11 8 -5 -6z"/>
 <path d="M2050 1112 c0 -12 19 -26 26 -19 2 2 -2 10 -11 17 -9 8 -15 8 -15 2z"/>
 <path d="M2310 1082 c6 -13 14 -21 18 -18 3 4 -2 14 -12 24 -18 16 -18 16 -6 -6z"/>
 <path d="M2090 1064 c1 -10 59 -82 60 -73 0 3 -13 23 -30 44 -16 21 -30 34 -30 29z"/>
 <path d="M4088 1053 c-29 -34 -31 -48 -3 -20 15 15 26 30 23 32 -3 3 -12 -3 -20 -12z"/>
 <path d="M2345 1040 c3 -5 8 -10 11 -10 3 0 2 5 -1 10 -3 6 -8 10 -11 10 -3 0 -2 -4 1 -10z"/>
 <path d="M2368 1004 c11 -22 42 -51 42 -40 0 4 -12 19 -26 34 -20 21 -24 22 -16 6z"/>
 <path d="M3799 993 c-13 -16 -12 -17 4 -4 9 7 17 15 17 17 0 8 -8 3 -21 -13z"/>
 <path d="M4006 950 c-14 -22 -25 -40 -23 -40 2 0 18 18 36 40 17 22 28 40 23 40 -5 0 -21 -18 -36 -40z"/>
 <path d="M2160 971 c0 -6 4 -13 10 -16 6 -3 7 1 4 9 -7 18 -14 21 -14 7z"/>
 <path d="M3759 943 l-24 -28 28 24 c25 23 32 31 24 31 -2 0 -14 -12 -28 -27z"/>
 <path d="M2200 921 c0 -6 4 -13 10 -16 6 -3 7 1 4 9 -7 18 -14 21 -14 7z"/>
 <path d="M3705 880 c-10 -11 -16 -22 -14 -24 2 -2 12 7 22 20 22 29 17 32 -8 4z"/>
 <path d="M2480 862 c6 -13 14 -21 18 -18 3 4 -2 14 -12 24 -18 16 -18 16 -6 -6z"/>
 <path d="M3936 863 c-6 -14 -5 -15 5 -6 7 7 10 15 7 18 -3 3 -9 -2 -12 -12z"/>
 <path d="M2260 844 c1 -10 60 -82 60 -72 0 3 -13 22 -30 43 -16 21 -30 34 -30 29z"/>
 <path d="M3655 819 c-4 -6 -5 -12 -2 -15 2 -3 7 2 10 11 7 17 1 20 -8 4z"/>
 <path d="M2530 798 c0 -4 6 -13 13 -20 7 -7 21 -24 30 -38 9 -13 17 -20 17 -14 0 11 -59 83 -60 72z"/>
 <path d="M3610 765 c-13 -14 -21 -27 -18 -30 2 -3 14 9 27 25 26 37 23 39 -9 5z"/>
 <path d="M2330 751 c0 -5 5 -13 10 -16 6 -3 10 -2 10 4 0 5 -4 13 -10 16 -5 3 -10 2 -10 -4z"/>
 <path d="M3560 705 c-7 -9 -11 -17 -9 -20 3 -2 10 5 17 15 14 24 10 26 -8 5z"/>
 <path d="M2370 701 c0 -6 4 -13 10 -16 6 -3 7 1 4 9 -7 18 -14 21 -14 7z"/>
 <path d="M3790 688 c-12 -22 -12 -22 6 -6 10 10 15 20 12 24 -4 3 -12 -5 -18 -18z"/>
 <path d="M2615 690 c3 -5 8 -10 11 -10 3 0 2 5 -1 10 -3 6 -8 10 -11 10 -3 0 -2 -4 1 -10z"/>
 <path d="M2410 654 c1 -12 39 -61 40 -51 0 5 -9 20 -20 34 -11 14 -20 22 -20 17z"/>
 <path d="M3514 648 c-4 -7 -3 -8 4 -4 7 4 12 9 12 12 0 8 -9 4 -16 -8z"/>
 <path d="M3753 648 c-23 -30 -24 -41 -2 -21 12 12 20 25 17 28 -3 3 -10 0 -15 -7z"/>
 <path d="M2656 637 c3 -10 9 -15 12 -12 3 3 0 11 -7 18 -10 9 -11 8 -5 -6z"/>
 <path d="M3490 619 c0 -5 5 -7 10 -4 6 3 10 8 10 11 0 2 -4 4 -10 4 -5 0 -10 -5 -10 -11z"/>
 <path d="M2695 587 c10 -15 20 -25 23 -22 3 3 -5 16 -17 28 l-23 22 17 -28z"/>
 <path d="M3464 588 c-4 -7 -3 -8 4 -4 12 7 16 16 8 16 -3 0 -8 -5 -12 -12z"/>
 <path d="M2470 571 c0 -6 4 -13 10 -16 6 -3 7 1 4 9 -7 18 -14 21 -14 7z"/>
 <path d="M3679 553 c-13 -16 -12 -17 4 -4 9 7 17 15 17 17 0 8 -8 3 -21 -13z"/>
 <path d="M2750 520 c11 -16 26 -33 32 -36 7 -4 -1 9 -16 29 -34 44 -46 50 -16 7z"/>
 <path d="M3414 528 c-4 -7 -3 -8 4 -4 12 7 16 16 8 16 -3 0 -8 -5 -12 -12z"/>
 <path d="M2510 523 c1 -11 50 -70 50 -59 0 4 -11 21 -25 38 -14 16 -25 26 -25 21z"/>
 <path d="M3646 513 c-6 -14 -5 -15 5 -6 7 7 10 15 7 18 -3 3 -9 -2 -12 -12z"/>
 <path d="M3365 469 c-4 -6 -5 -12 -2 -15 2 -3 7 2 10 11 7 17 1 20 -8 4z"/>
 <path d="M3595 453 l-17 -28 23 22 c12 12 20 25 17 28 -3 3 -13 -7 -23 -22z"/>
 <path d="M2818 432 c13 -17 28 -35 34 -39 7 -3 2 8 -10 25 -13 17 -28 35 -34 39 -7 3 -2 -8 10 -25z"/>
 <path d="M3314 408 c-4 -7 -3 -8 4 -4 7 4 12 9 12 12 0 8 -9 4 -16 -8z"/>
 <path d="M3531 375 c-17 -20 -31 -39 -31 -42 0 -4 3 -3 8 3 4 5 20 24 36 42 17 17 27 32 24 32 -3 0 -20 -16 -37 -35z"/>
 <path d="M3251 331 c-17 -21 -31 -43 -31 -47 0 -10 44 40 60 69 18 30 3 19 -29 -22z"/>
 <path d="M2906 328 c10 -14 21 -24 23 -22 3 3 -6 15 -18 27 l-24 22 19 -27z"/>
 <path d="M2680 311 c0 -6 4 -13 10 -16 6 -3 7 1 4 9 -7 18 -14 21 -14 7z"/>
 <path d="M3465 300 c-3 -5 -1 -10 4 -10 6 0 11 5 11 10 0 6 -2 10 -4 10 -3 0 -8 -4 -11 -10z"/>
 <path d="M3444 268 c-4 -7 -3 -8 4 -4 12 7 16 16 8 16 -3 0 -8 -5 -12 -12z"/>
 <path d="M2725 250 c10 -11 20 -20 22 -20 2 0 -2 9 -9 20 -7 11 -17 20 -22 20 -5 0 -1 -9 9 -20z"/>
 <path d="M2975 247 c10 -15 20 -25 23 -22 3 3 -5 16 -17 28 l-23 22 17 -28z"/>
 <path d="M3184 248 c-4 -7 -3 -8 4 -4 7 4 12 9 12 12 0 8 -9 4 -16 -8z"/>
 <path d="M3401 217 c-13 -21 -12 -21 5 -5 10 10 16 20 13 22 -3 3 -11 -5 -18 -17z"/>
 <path d="M2760 212 c0 -5 12 -19 27 -33 l27 -24 -23 33 c-23 32 -31 39 -31 24z"/>
 <path d="M3029 201 c27 -25 66 -26 101 -5 16 10 18 13 5 8 -45 -16 -76 -16 -103 0 l-27 17 24 -20z"/>
 <path d="M3365 180 c-3 -5 -1 -10 4 -10 6 0 11 5 11 10 0 6 -2 10 -4 10 -3 0 -8 -4 -11 -10z"/>
 <path d="M3344 148 c-4 -7 -3 -8 4 -4 12 7 16 16 8 16 -3 0 -8 -5 -12 -12z"/>
 <path d="M2830 133 c0 -5 10 -18 23 -29 l22 -19 -20 25 c-11 14 -21 27 -22 29 -2 2 -3 0 -3 -6z"/>
 <path d="M3320 120 c0 -7 3 -10 7 -7 3 4 3 10 0 14 -4 3 -7 0 -7 -7z"/>
 <path d="M3285 90 c-3 -5 -1 -10 4 -10 6 0 11 5 11 10 0 6 -2 10 -4 10 -3 0 -8 -4 -11 -10z"/>
 <path d="M2880 77 c0 -7 95 -67 106 -67 9 0 -10 14 -68 49 -21 12 -38 20 -38 18z"/>
 <path d="M3250 60 c-9 -6 -10 -10 -3 -10 6 0 15 5 18 10 8 12 4 12 -15 0z"/>
 <path d="M3186 25 c-11 -8 -15 -15 -10 -15 6 0 19 7 30 15 10 8 15 14 9 14 -5 0 -19 -6 -29 -14z"/>
 </g>

</svg>