<!DOCTYPE svg PUBLIC "-//W3C//DTD SVG 20010904//EN" "http://www.w3.org/TR/2001/REC-SVG-20010904/DTD/svg10.dtd">
<svg version="1.0" xmlns="http://www.w3.org/2000/svg" width="163px" height="117px" viewBox="0 0 1630 1170" preserveAspectRatio="xMidYMid meet">
<g id="layer101" fill="#131313" stroke="none">
 <path d="M128 1034 c-2 -25 0 -48 4 -51 16 -9 49 9 46 25 -1 9 1 23 6 31 6 9 3 18 -9 28 -32 23 -43 15 -47 -33z m40 15 c-2 -6 -8 -10 -13 -10 -5 0 -11 4 -13 10 -2 6 4 11 13 11 9 0 15 -5 13 -11z m2 -39 c0 -5 -7 -10 -15 -10 -8 0 -15 5 -15 10 0 6 7 10 15 10 8 0 15 -4 15 -10z"/>
 <path d="M200 1069 c0 -19 28 -89 36 -89 6 0 34 65 34 80 0 6 -7 6 -20 -2 -16 -11 -22 -9 -34 7 -13 17 -15 17 -16 4z m44 -44 c-4 -8 -7 -15 -9 -15 -2 0 -5 7 -9 15 -3 9 0 15 9 15 9 0 12 -6 9 -15z"/>
 <path d="M313 1073 c-19 -4 -23 -11 -23 -44 0 -21 5 -39 10 -39 6 0 10 16 10 35 0 24 5 35 15 35 8 0 15 5 15 10 0 6 -1 9 -2 9 -2 -1 -13 -4 -25 -6z"/>
 <path d="M373 1073 c-20 -4 -23 -11 -23 -49 0 -24 5 -44 10 -44 6 0 10 18 10 40 0 29 4 40 15 40 8 0 15 5 15 10 0 6 -1 9 -2 9 -2 -1 -13 -4 -25 -6z"/>
 <path d="M415 1071 c-3 -2 -5 -24 -5 -48 0 -39 2 -43 25 -43 14 0 25 5 25 10 0 6 -7 10 -15 10 -8 0 -15 5 -15 10 0 6 7 10 16 10 8 0 12 5 9 10 -4 6 -11 8 -16 5 -5 -4 -9 1 -9 9 0 9 7 16 15 16 8 0 15 4 15 8 0 8 -38 11 -45 3z"/>
 <path d="M502 1043 c-2 -32 -6 -43 -18 -43 -8 0 -13 -4 -9 -9 7 -12 65 -11 65 1 0 4 -6 8 -14 8 -10 0 -16 14 -19 43 l-4 42 -1 -42z"/>
 <path d="M586 1073 c-10 -10 -7 -81 4 -88 17 -11 51 6 48 23 -1 9 1 23 6 30 5 8 4 18 -1 23 -12 12 -49 19 -57 12z m42 -24 c-2 -6 -8 -10 -13 -10 -5 0 -11 4 -13 10 -2 6 4 11 13 11 9 0 15 -5 13 -11z m-8 -39 c0 -5 -4 -10 -10 -10 -5 0 -10 5 -10 10 0 6 5 10 10 10 6 0 10 -4 10 -10z"/>
 <path d="M738 1069 c-33 -19 -12 -89 26 -89 32 0 50 62 24 88 -14 14 -27 15 -50 1z m47 -39 c0 -18 -6 -26 -22 -28 -18 -3 -23 1 -23 21 0 28 9 39 30 35 9 -2 15 -14 15 -28z"/>
 <path d="M838 1069 c-26 -14 -23 -65 3 -80 15 -8 24 -8 32 0 8 8 5 11 -10 11 -21 0 -34 24 -26 48 3 6 14 12 24 12 11 0 17 5 14 10 -8 12 -15 12 -37 -1z"/>
 <path d="M903 1030 c0 -30 2 -45 4 -32 6 29 43 31 43 1 0 -11 3 -18 8 -15 9 5 8 83 -1 93 -4 3 -7 -5 -7 -19 0 -21 -4 -25 -19 -21 -11 3 -22 15 -24 27 -2 11 -4 -4 -4 -34z"/>
 <path d="M1027 1059 c-25 -35 4 -89 40 -74 16 7 15 9 -7 14 -34 9 -36 54 -2 59 12 2 20 8 17 13 -10 15 -33 10 -48 -12z"/>
 <path d="M1094 1058 c4 -15 11 -39 16 -54 9 -23 13 -25 24 -13 17 18 38 80 30 88 -3 3 -10 -2 -15 -12 -13 -22 -28 -22 -46 1 -13 15 -14 15 -9 -10z m46 -27 c0 -6 -4 -13 -10 -16 -5 -3 -10 1 -10 9 0 9 5 16 10 16 6 0 10 -4 10 -9z"/>
 <path d="M1180 1031 c0 -59 12 -64 40 -18 l20 32 0 -27 c0 -16 3 -28 8 -28 9 0 9 76 0 86 -4 3 -16 -9 -27 -27 l-21 -34 0 27 c0 15 -4 30 -10 33 -6 4 -10 -13 -10 -44z"/>
 <path d="M1274 1058 c4 -15 11 -39 16 -54 9 -23 13 -25 24 -13 17 18 38 80 30 88 -3 3 -10 -2 -15 -12 -13 -22 -28 -22 -46 1 -13 15 -14 15 -9 -10z m46 -27 c0 -6 -4 -13 -10 -16 -5 -3 -10 1 -10 9 0 9 5 16 10 16 6 0 10 -4 10 -9z"/>
 <path d="M1360 1035 c0 -50 15 -64 49 -45 32 16 29 68 -5 80 -40 16 -44 13 -44 -35z m55 -5 c0 -16 -6 -26 -17 -28 -14 -3 -18 3 -18 28 0 25 4 31 18 28 11 -2 17 -12 17 -28z"/>
 <path d="M1450 1067 c0 -21 26 -87 35 -87 9 0 35 66 35 87 -1 17 -1 17 -14 1 -7 -10 -18 -18 -24 -18 -6 0 -16 8 -21 18 -10 16 -10 16 -11 -1z m44 -42 c-4 -8 -7 -15 -9 -15 -2 0 -5 7 -9 15 -3 9 0 15 9 15 9 0 12 -6 9 -15z"/>
 <path d="M670 1023 l5 -48 3 42 c2 29 8 43 20 46 11 3 8 5 -8 6 -24 1 -25 -1 -20 -46z"/>
 <path d="M400 909 c-60 -12 -144 -56 -191 -101 -136 -132 -108 -333 51 -365 l33 -6 -39 -20 c-47 -23 -101 -72 -120 -110 -22 -42 -20 -134 3 -166 49 -66 117 -91 248 -91 146 0 274 44 383 130 27 22 53 40 57 40 4 0 28 -18 52 -41 86 -79 230 -129 376 -129 116 0 168 14 218 59 99 89 59 236 -85 308 l-39 20 34 7 c90 17 146 95 136 192 -8 78 -50 149 -120 200 -95 70 -132 78 -359 79 -190 0 -196 -1 -180 -18 9 -10 31 -25 48 -32 46 -19 65 -68 139 -359 66 -262 69 -286 29 -286 -7 0 -11 -6 -8 -13 3 -8 40 -20 90 -29 85 -14 85 -14 79 6 -7 24 -49 186 -59 230 l-7 29 50 -6 c119 -14 201 -97 201 -204 0 -105 -68 -150 -213 -140 -125 8 -244 59 -329 140 l-26 26 41 83 c40 80 42 87 42 178 0 86 -3 100 -28 142 -36 63 -72 82 -113 62 -108 -53 -125 -249 -35 -409 17 -30 31 -57 31 -60 0 -10 -109 -86 -165 -113 -156 -77 -346 -68 -390 19 -41 78 5 198 92 247 43 23 143 42 143 26 0 -8 -52 -208 -67 -255 -4 -14 4 -14 79 -1 83 14 114 31 79 44 -11 4 -22 11 -25 16 -6 11 102 452 131 532 16 47 58 100 78 100 6 0 21 10 33 23 l21 22 -177 1 c-97 1 -197 -3 -222 -7z m193 -46 c17 -4 17 -6 2 -23 -20 -22 -54 -122 -84 -245 -31 -127 -25 -121 -117 -108 -64 9 -82 16 -107 41 -76 76 -27 260 85 318 57 30 151 37 221 17z m662 -12 c84 -37 141 -138 133 -236 -7 -88 -54 -124 -164 -128 l-66 -2 -33 128 c-36 141 -59 203 -82 229 -14 16 -13 18 8 22 79 17 142 13 204 -13z m-401 -237 c35 -36 47 -83 36 -148 -8 -49 -57 -166 -70 -166 -12 0 -60 115 -69 163 -13 71 8 144 47 166 24 15 26 14 56 -15z"/>
 </g>
<g id="layer102" fill="#313131" stroke="none">
 <path d="M135 1070 c3 -5 10 -10 16 -10 5 0 9 5 9 10 0 6 -7 10 -16 10 -8 0 -12 -4 -9 -10z"/>
 <path d="M384 1068 c-4 -7 -3 -8 4 -4 12 7 16 16 8 16 -3 0 -8 -5 -12 -12z"/>
 <path d="M415 1071 c-3 -2 -5 -24 -5 -48 0 -39 2 -43 26 -43 15 0 23 4 19 11 -4 6 -13 8 -21 5 -12 -4 -12 -2 -4 15 6 11 16 16 22 13 7 -4 8 -3 4 5 -4 6 -12 9 -17 6 -16 -10 -10 17 7 29 13 10 13 12 -6 12 -11 0 -23 -2 -25 -5z"/>
 <path d="M596 1068 c3 -4 9 -8 15 -8 5 0 9 4 9 8 0 5 -7 9 -15 9 -8 0 -12 -4 -9 -9z"/>
 <path d="M750 1070 c0 -5 -6 -9 -12 -7 -8 1 -14 -10 -16 -27 -2 -19 0 -26 8 -21 6 4 8 16 4 27 -3 12 -2 18 3 15 6 -4 19 0 29 8 17 13 18 14 2 15 -10 0 -18 -4 -18 -10z"/>
 <path d="M850 1070 c0 -5 5 -10 10 -10 6 0 10 5 10 10 0 6 -4 10 -10 10 -5 0 -10 -4 -10 -10z"/>
 <path d="M1045 1070 c4 -6 11 -8 16 -5 14 9 11 15 -7 15 -8 0 -12 -5 -9 -10z"/>
 <path d="M1092 1070 c2 -8 7 -19 12 -25 12 -14 58 -16 53 -1 -2 6 -12 10 -21 8 -10 -2 -24 5 -32 15 -10 13 -14 14 -12 3z"/>
 <path d="M1155 1070 c3 -5 8 -10 11 -10 2 0 4 5 4 10 0 6 -5 10 -11 10 -5 0 -7 -4 -4 -10z"/>
 <path d="M1181 1029 c-1 -30 2 -49 9 -49 6 0 8 5 5 10 -3 6 2 10 11 10 14 0 15 3 6 12 -7 7 -12 22 -12 34 0 46 -17 31 -19 -17z"/>
 <path d="M1335 1070 c3 -5 8 -10 11 -10 2 0 4 5 4 10 0 6 -5 10 -11 10 -5 0 -7 -4 -4 -10z"/>
 <path d="M1362 1033 c2 -37 7 -49 22 -51 11 -3 16 0 11 7 -3 6 -9 9 -13 7 -4 -2 -7 13 -7 34 0 21 3 36 8 33 4 -2 7 1 7 6 0 6 -7 11 -16 11 -12 0 -14 -10 -12 -47z"/>
 <path d="M207 1063 c-14 -13 -6 -19 29 -21 22 -2 33 1 29 7 -3 6 -13 7 -21 4 -9 -3 -19 -1 -23 6 -4 6 -10 8 -14 4z"/>
 <path d="M290 1030 c0 -25 4 -39 10 -35 6 3 10 19 10 35 0 16 -4 32 -10 35 -6 4 -10 -10 -10 -35z"/>
 <path d="M350 1026 c0 -25 4 -46 8 -46 12 0 14 77 2 85 -6 4 -10 -11 -10 -39z"/>
 <path d="M1500 1059 c0 -6 -8 -9 -20 -6 -11 3 -23 1 -26 -4 -3 -6 10 -9 30 -7 36 2 45 11 26 23 -5 3 -10 1 -10 -6z"/>
 <path d="M170 1045 c-7 -8 -16 -12 -21 -9 -5 3 -9 0 -9 -5 0 -6 3 -11 8 -11 12 1 46 30 40 35 -3 3 -11 -1 -18 -10z"/>
 <path d="M632 1044 c-10 -11 -18 -12 -32 -4 -18 10 -20 7 -20 -20 0 -31 30 -56 38 -32 2 7 8 9 14 6 7 -5 7 -1 0 12 -8 14 -6 21 6 30 10 7 15 15 12 17 -3 3 -11 -1 -18 -9z m-12 -34 c0 -4 -6 -10 -13 -13 -7 -3 -13 3 -13 13 0 10 6 16 13 13 7 -3 13 -9 13 -13z"/>
 <path d="M825 1050 c3 -5 8 -10 11 -10 2 0 4 5 4 10 0 6 -5 10 -11 10 -5 0 -7 -4 -4 -10z"/>
 <path d="M1230 1045 c7 -8 16 -15 21 -15 5 0 9 7 9 15 0 9 -9 15 -21 15 -18 0 -19 -2 -9 -15z"/>
 <path d="M1277 1039 c3 -10 9 -16 14 -13 13 8 11 21 -5 27 -10 4 -12 0 -9 -14z"/>
 <path d="M1316 1051 c-3 -5 1 -11 9 -15 8 -3 15 -1 15 4 0 13 -18 22 -24 11z"/>
 <path d="M905 1030 c-4 -6 5 -10 20 -10 15 0 24 4 20 10 -3 6 -12 10 -20 10 -8 0 -17 -4 -20 -10z"/>
 <path d="M1215 1030 c3 -5 8 -10 11 -10 3 0 2 5 -1 10 -3 6 -8 10 -11 10 -3 0 -2 -4 1 -10z"/>
 <path d="M213 1023 c4 -3 10 -3 14 0 3 4 0 7 -7 7 -7 0 -10 -3 -7 -7z"/>
 <path d="M231 1013 c-10 -11 -10 -17 -2 -24 6 -5 9 -6 6 -3 -3 4 3 12 12 19 9 7 12 14 7 17 -5 3 -15 -1 -23 -9z"/>
 <path d="M826 1013 c-6 -14 -5 -15 5 -6 7 7 10 15 7 18 -3 3 -9 -2 -12 -12z"/>
 <path d="M1466 1022 c-3 -5 1 -17 8 -27 7 -10 15 -14 19 -9 3 5 -1 17 -8 27 -7 10 -16 14 -19 9z"/>
 <path d="M1495 1020 c3 -5 8 -10 11 -10 2 0 4 5 4 10 0 6 -5 10 -11 10 -5 0 -7 -4 -4 -10z"/>
 <path d="M1120 1010 c-20 -12 -10 -19 14 -10 11 3 15 9 10 13 -6 3 -16 2 -24 -3z"/>
 <path d="M1300 1010 c-20 -12 -10 -19 14 -10 11 3 15 9 10 13 -6 3 -16 2 -24 -3z"/>
 <path d="M768 1003 c-21 -5 -24 -23 -4 -23 8 0 16 7 20 15 3 8 4 14 3 14 -1 -1 -10 -3 -19 -6z"/>
 <path d="M1245 1000 c3 -5 8 -10 11 -10 3 0 2 5 -1 10 -3 6 -8 10 -11 10 -3 0 -2 -4 1 -10z"/>
 <path d="M135 990 c-3 -5 1 -10 9 -10 9 0 16 5 16 10 0 6 -4 10 -9 10 -6 0 -13 -4 -16 -10z"/>
 <path d="M476 989 c2 -4 18 -7 34 -7 16 1 27 5 24 10 -3 4 -18 7 -34 6 -16 -1 -27 -5 -24 -9z"/>
 <path d="M850 990 c0 -5 5 -10 10 -10 6 0 10 5 10 10 0 6 -4 10 -10 10 -5 0 -10 -4 -10 -10z"/>
 <path d="M1045 990 c-3 -5 1 -10 10 -10 9 0 13 5 10 10 -3 6 -8 10 -10 10 -2 0 -7 -4 -10 -10z"/>
 <path d="M400 909 c-25 -5 -46 -13 -48 -19 -2 -6 -8 -8 -13 -4 -10 6 -69 -26 -69 -38 0 -4 -3 -7 -7 -6 -10 3 -98 -85 -95 -94 1 -5 -3 -8 -9 -8 -5 0 -7 -4 -4 -10 3 -5 1 -10 -5 -10 -7 0 -9 -7 -6 -16 3 -9 2 -12 -5 -9 -6 4 -9 1 -8 -6 1 -8 -1 -22 -6 -32 -11 -26 0 -108 16 -118 8 -5 10 -9 6 -9 -4 0 8 -16 28 -35 20 -21 40 -33 47 -29 7 4 8 3 4 -4 -4 -7 6 -13 28 -18 28 -5 33 -9 23 -19 -7 -7 -15 -11 -19 -8 -5 2 -8 -1 -8 -7 0 -6 -4 -8 -10 -5 -5 3 -10 1 -10 -4 0 -6 -4 -10 -9 -9 -13 4 -92 -82 -86 -92 4 -6 1 -10 -6 -10 -7 0 -9 -10 -6 -30 4 -16 2 -32 -4 -36 -7 -4 -6 -10 1 -19 6 -7 8 -19 5 -28 -7 -17 52 -90 66 -81 5 3 9 0 9 -6 0 -6 5 -8 10 -5 6 3 10 1 10 -5 0 -6 4 -9 9 -6 5 4 11 1 13 -6 11 -32 345 -11 356 22 2 5 10 6 19 3 11 -4 14 -2 9 5 -4 8 -2 10 7 6 8 -3 25 5 37 18 13 13 20 16 16 8 -7 -13 -6 -13 6 0 7 8 20 16 28 18 8 1 29 19 47 40 17 20 40 36 50 36 10 0 37 -19 60 -43 26 -26 47 -40 54 -35 7 4 9 3 5 -4 -6 -10 30 -28 46 -24 5 1 8 -2 8 -8 0 -5 7 -6 17 -3 11 4 14 3 9 -5 -7 -11 7 -16 42 -15 6 1 12 -3 12 -7 0 -33 286 -37 352 -6 45 22 92 71 94 99 1 12 5 31 10 41 4 12 3 21 -3 23 -5 2 -8 15 -5 28 2 15 0 25 -7 25 -7 0 -9 4 -6 10 6 10 -75 96 -87 92 -5 -1 -8 3 -8 9 0 5 -4 7 -10 4 -5 -3 -10 -2 -10 4 0 5 -9 13 -20 16 -11 4 -18 10 -15 15 3 5 12 7 20 3 8 -3 15 0 15 7 0 7 6 10 14 7 17 -7 79 30 72 42 -3 5 1 12 10 15 8 3 13 10 10 15 -4 5 -1 11 5 13 15 5 25 118 11 118 -5 0 -8 10 -4 22 3 14 1 19 -6 14 -8 -5 -10 -2 -6 8 3 9 1 16 -6 16 -6 0 -8 5 -5 10 3 6 1 10 -5 10 -6 0 -8 5 -5 10 3 6 -1 13 -9 16 -9 3 -14 10 -11 14 2 4 -5 16 -18 26 -21 19 -21 19 -8 -1 7 -11 -1 -4 -19 15 -18 19 -29 28 -25 20 5 -8 -4 -2 -19 13 -16 17 -33 27 -42 23 -10 -4 -13 -2 -8 6 5 7 2 9 -9 5 -9 -3 -17 -2 -19 3 -6 18 -122 32 -203 26 -120 -9 -187 -9 -218 -1 l-29 8 26 -26 c14 -14 34 -28 45 -32 12 -3 28 -19 38 -36 9 -16 20 -29 23 -29 3 0 6 -8 6 -17 1 -19 61 -258 71 -283 3 -8 5 -18 5 -22 -1 -5 3 -8 9 -8 5 0 8 -4 5 -9 -4 -5 5 -55 19 -111 19 -79 22 -106 13 -120 -7 -11 -18 -16 -27 -12 -14 5 -14 4 0 -10 22 -23 169 -50 169 -31 0 7 -4 13 -9 13 -5 0 -8 6 -8 13 1 10 -34 168 -49 218 -3 12 3 18 26 21 17 3 33 1 37 -5 3 -5 14 -7 24 -4 11 3 19 1 19 -5 0 -5 4 -7 9 -4 5 4 11 2 13 -3 1 -5 10 -11 18 -13 18 -4 77 -72 85 -98 4 -11 10 -20 14 -20 11 0 0 -99 -15 -135 -27 -67 -198 -85 -336 -37 -31 11 -59 18 -62 15 -3 -4 -6 -1 -6 5 0 10 -43 38 -67 44 -5 2 -19 15 -31 30 -13 15 -30 28 -37 28 -17 0 -14 42 5 57 8 7 11 13 7 13 -5 0 -1 7 7 16 9 8 14 20 11 25 -4 5 -2 9 3 9 18 0 37 87 37 170 0 75 -4 91 -28 132 -27 47 -58 73 -71 61 -3 -3 -6 -1 -6 7 0 10 -3 10 -15 0 -8 -7 -15 -9 -15 -4 0 5 -5 1 -11 -9 -6 -9 -15 -14 -21 -11 -7 4 -8 2 -4 -5 4 -6 0 -14 -9 -17 -16 -6 -47 -57 -44 -71 1 -4 -1 -16 -6 -26 -9 -22 -1 -149 11 -168 4 -7 9 -22 10 -33 0 -11 6 -22 13 -24 6 -2 9 -8 6 -12 -3 -5 5 -19 17 -31 13 -12 17 -19 11 -15 -8 4 -6 -5 4 -23 17 -28 17 -30 -1 -50 -10 -11 -23 -19 -30 -18 -6 1 -10 -4 -8 -11 1 -6 -1 -11 -5 -11 -22 4 -33 -2 -27 -13 4 -7 4 -10 -1 -6 -7 7 -105 -39 -116 -55 -3 -5 -10 -8 -15 -8 -19 3 -94 -12 -94 -18 0 -3 -39 -3 -87 1 -115 10 -113 10 -113 20 0 5 -4 7 -8 4 -9 -5 -34 22 -41 45 -12 39 -11 109 2 140 7 19 14 38 15 42 1 12 70 65 93 72 10 4 19 10 19 14 0 3 25 8 55 9 30 1 55 -1 55 -5 0 -5 -9 -41 -19 -82 -11 -40 -17 -79 -14 -87 3 -8 1 -14 -4 -14 -11 0 -37 -79 -29 -88 3 -3 6 0 6 6 0 6 7 9 15 6 8 -4 23 -3 33 1 9 4 29 7 45 6 15 -2 27 3 27 9 0 7 6 10 14 7 8 -3 20 2 28 11 8 10 8 13 1 9 -6 -4 -14 -3 -18 3 -4 6 -10 8 -15 5 -11 -7 -3 53 16 128 8 32 12 62 9 67 -3 6 -2 10 3 10 12 0 55 167 47 181 -4 5 -1 9 5 9 6 0 10 6 9 13 -1 6 1 19 4 27 13 34 26 94 21 102 -3 4 -1 8 5 8 5 0 13 10 16 23 8 23 53 77 66 77 5 0 19 11 33 25 14 14 22 25 17 25 -4 0 -11 -3 -14 -7 -10 -9 -217 -10 -217 0 0 9 -103 7 -160 -4z m762 -28 c2 -5 21 -11 43 -13 22 -1 42 -5 45 -8 13 -14 66 -44 73 -42 5 1 6 -2 3 -7 -4 -5 2 -16 12 -23 19 -13 22 -18 22 -39 0 -5 4 -8 8 -5 4 2 9 -3 10 -12 12 -111 12 -140 1 -167 -7 -16 -12 -33 -11 -37 1 -5 -1 -7 -6 -6 -12 2 -42 -14 -38 -21 4 -7 -54 -14 -124 -15 l-44 -1 -9 45 c-5 25 -12 47 -16 50 -3 3 -6 10 -6 15 -1 31 -18 95 -25 95 -4 0 -6 9 -3 20 3 11 0 20 -6 20 -5 0 -8 7 -5 15 4 8 1 15 -6 15 -6 0 -9 4 -5 9 3 5 1 12 -5 16 -6 4 -8 11 -5 16 4 5 1 9 -5 9 -6 0 -9 4 -5 9 3 6 -3 14 -12 20 -17 9 -17 11 2 25 11 8 30 12 42 10 12 -3 30 -1 40 5 22 13 30 13 35 2z m-569 -18 c17 -4 17 -6 2 -23 -10 -11 -14 -24 -9 -31 4 -7 3 -10 -3 -6 -5 3 -15 -8 -21 -26 -19 -53 -72 -261 -67 -265 8 -9 -24 -32 -47 -33 -13 -1 -45 3 -73 9 -27 6 -52 9 -55 8 -3 -1 -19 13 -36 30 -29 31 -31 37 -31 113 0 45 3 81 8 81 7 0 23 35 23 50 0 3 17 21 38 41 21 21 38 35 38 33 0 -3 9 0 20 6 48 26 147 32 213 13z m252 -231 c-2 -2 5 -14 16 -25 11 -12 23 -33 26 -47 3 -14 11 -28 16 -32 7 -4 6 -12 -2 -22 -7 -9 -11 -27 -9 -41 3 -14 1 -28 -4 -31 -5 -3 -7 -12 -4 -20 3 -8 1 -14 -5 -14 -6 0 -8 -7 -5 -16 4 -10 2 -13 -6 -8 -8 5 -9 2 -5 -10 4 -10 3 -15 -3 -11 -9 6 -14 -8 -11 -27 0 -5 -4 -8 -10 -8 -5 0 -7 -4 -4 -10 3 -5 -3 -10 -14 -10 -12 0 -20 3 -19 7 4 13 -24 73 -34 73 -5 0 -6 5 -3 10 3 6 3 10 -2 10 -9 0 -11 18 -12 100 -1 77 1 90 12 90 6 0 8 3 5 6 -12 11 27 40 54 40 15 0 26 -2 23 -4z"/>
 <path d="M199 803 c-13 -16 -12 -17 4 -4 16 13 21 21 13 21 -2 0 -10 -8 -17 -17z"/>
 <path d="M165 490 c3 -5 8 -10 11 -10 3 0 2 5 -1 10 -3 6 -8 10 -11 10 -3 0 -2 -4 1 -10z"/>
 <path d="M789 203 c-13 -16 -12 -17 4 -4 9 7 17 15 17 17 0 8 -8 3 -21 -13z"/>
 </g>
<g id="layer103" fill="#4f4f4f" stroke="none">
 <path d="M135 1070 c4 -6 11 -8 16 -5 14 9 11 15 -7 15 -8 0 -12 -5 -9 -10z"/>
 <path d="M417 1073 c-4 -3 -7 -26 -7 -50 0 -39 2 -43 26 -43 14 0 23 4 19 10 -3 5 -12 7 -19 4 -11 -4 -14 5 -13 40 1 25 2 46 1 46 0 0 -4 -3 -7 -7z"/>
 <path d="M1045 1070 c4 -6 11 -8 16 -5 14 9 11 15 -7 15 -8 0 -12 -5 -9 -10z"/>
 <path d="M1093 1065 c0 -8 4 -12 9 -9 5 3 6 10 3 15 -9 13 -12 11 -12 -6z"/>
 <path d="M1155 1070 c3 -5 8 -10 11 -10 2 0 4 5 4 10 0 6 -5 10 -11 10 -5 0 -7 -4 -4 -10z"/>
 <path d="M1188 1053 c5 -21 7 -23 10 -9 2 10 0 22 -6 28 -6 6 -7 0 -4 -19z"/>
 <path d="M1335 1070 c3 -5 8 -10 11 -10 2 0 4 5 4 10 0 6 -5 10 -11 10 -5 0 -7 -4 -4 -10z"/>
 <path d="M1361 1073 c0 -5 4 -17 9 -28 8 -17 8 -16 7 8 -1 15 -5 27 -9 27 -4 0 -8 -3 -7 -7z"/>
 <path d="M206 1053 c-6 -14 -5 -15 5 -6 7 7 10 15 7 18 -3 3 -9 -2 -12 -12z"/>
 <path d="M725 1059 c-4 -6 -4 -13 -1 -16 3 -4 6 -1 6 6 0 7 5 9 12 5 7 -4 8 -3 4 4 -9 15 -13 15 -21 1z"/>
 <path d="M1500 1061 c0 -6 4 -13 10 -16 6 -3 7 1 4 9 -7 18 -14 21 -14 7z"/>
 <path d="M169 1043 c-13 -16 -12 -17 4 -4 16 13 21 21 13 21 -2 0 -10 -8 -17 -17z"/>
 <path d="M255 1050 c3 -5 8 -10 11 -10 3 0 2 5 -1 10 -3 6 -8 10 -11 10 -3 0 -2 -4 1 -10z"/>
 <path d="M294 1048 c-4 -7 -3 -8 4 -4 12 7 16 16 8 16 -3 0 -8 -5 -12 -12z"/>
 <path d="M640 1050 c0 -7 3 -10 7 -7 3 4 3 10 0 14 -4 3 -7 0 -7 -7z"/>
 <path d="M140 1030 c0 -7 3 -10 7 -7 3 4 3 10 0 14 -4 3 -7 0 -7 -7z"/>
 <path d="M600 1030 c0 -7 3 -10 7 -7 3 4 3 10 0 14 -4 3 -7 0 -7 -7z"/>
 <path d="M1215 1030 c3 -5 8 -10 11 -10 3 0 2 5 -1 10 -3 6 -8 10 -11 10 -3 0 -2 -4 1 -10z"/>
 <path d="M291 1014 c0 -11 3 -14 6 -6 3 7 2 16 -1 19 -3 4 -6 -2 -5 -13z"/>
 <path d="M724 1018 c-4 -7 -3 -8 4 -4 12 7 16 16 8 16 -3 0 -8 -5 -12 -12z"/>
 <path d="M826 1013 c-6 -14 -5 -15 5 -6 7 7 10 15 7 18 -3 3 -9 -2 -12 -12z"/>
 <path d="M1466 1021 c-3 -5 1 -11 9 -14 9 -4 12 -1 8 9 -6 16 -10 17 -17 5z"/>
 <path d="M350 1010 c0 -7 3 -10 7 -7 3 4 3 10 0 14 -4 3 -7 0 -7 -7z"/>
 <path d="M1187 1013 c-10 -9 -9 -33 1 -33 4 0 8 9 9 20 2 21 0 24 -10 13z"/>
 <path d="M1360 1010 c0 -5 5 -10 11 -10 5 0 7 -4 4 -10 -3 -5 2 -10 11 -10 16 0 16 1 -1 20 -20 23 -25 24 -25 10z"/>
 <path d="M225 1001 c-3 -5 -2 -12 3 -15 5 -3 9 1 9 9 0 17 -3 19 -12 6z"/>
 <path d="M584 998 c1 -7 11 -15 21 -16 11 -3 15 0 10 7 -3 6 -10 9 -15 6 -4 -3 -11 0 -13 5 -3 6 -4 5 -3 -2z"/>
 <path d="M625 1000 c3 -5 8 -10 11 -10 3 0 2 5 -1 10 -3 6 -8 10 -11 10 -3 0 -2 -4 1 -10z"/>
 <path d="M135 990 c-3 -5 1 -10 9 -10 9 0 16 5 16 10 0 6 -4 10 -9 10 -6 0 -13 -4 -16 -10z"/>
 <path d="M475 990 c3 -5 8 -10 11 -10 3 0 2 5 -1 10 -3 6 -8 10 -11 10 -3 0 -2 -4 1 -10z"/>
 <path d="M755 990 c-3 -5 1 -10 10 -10 9 0 13 5 10 10 -3 6 -8 10 -10 10 -2 0 -7 -4 -10 -10z"/>
 <path d="M1045 990 c-3 -5 1 -10 10 -10 9 0 13 5 10 10 -3 6 -8 10 -10 10 -2 0 -7 -4 -10 -10z"/>
 <path d="M473 913 c9 -2 25 -2 35 0 9 3 1 5 -18 5 -19 0 -27 -2 -17 -5z"/>
 <path d="M783 913 c4 -3 10 -3 14 0 3 4 0 7 -7 7 -7 0 -10 -3 -7 -7z"/>
 <path d="M1143 913 c9 -2 23 -2 30 0 6 3 -1 5 -18 5 -16 0 -22 -2 -12 -5z"/>
 <path d="M390 900 c12 -9 10 -11 -12 -7 -15 2 -25 1 -23 -4 7 -10 -32 -22 -45 -14 -6 4 -9 1 -8 -7 2 -7 -5 -12 -14 -12 -10 1 -15 -3 -11 -9 4 -6 0 -8 -10 -4 -9 3 -19 1 -23 -5 -5 -7 -2 -8 7 -4 8 4 5 1 -5 -8 -10 -8 -22 -13 -27 -11 -7 5 -22 -11 -25 -25 -4 -20 -18 -39 -25 -34 -5 3 -6 -3 -2 -12 4 -12 3 -15 -5 -10 -8 5 -10 1 -5 -10 4 -11 3 -15 -4 -11 -7 5 -9 -1 -6 -15 4 -18 3 -20 -6 -8 -8 11 -9 5 -4 -24 4 -25 2 -37 -4 -33 -5 4 -10 -6 -10 -23 0 -16 5 -26 10 -23 6 4 8 -5 5 -20 -3 -17 -1 -24 5 -20 6 4 8 0 4 -9 -6 -17 8 -19 32 -4 8 6 7 -1 -4 -18 -10 -14 -15 -27 -11 -27 3 -1 11 -3 16 -4 6 -1 15 -3 21 -4 5 0 7 -5 4 -11 -4 -6 1 -7 11 -3 11 4 15 2 11 -4 -4 -6 2 -9 16 -6 26 4 59 -15 39 -24 -6 -2 -9 -10 -5 -16 4 -6 0 -8 -10 -4 -9 3 -18 -1 -21 -10 -4 -8 -12 -13 -20 -10 -9 4 -25 -9 -41 -34 -25 -35 -47 -56 -29 -27 4 7 3 8 -5 4 -6 -4 -9 -11 -6 -16 6 -10 -5 -41 -14 -36 -3 2 -6 -24 -6 -59 0 -35 4 -61 8 -58 5 3 7 -3 5 -13 -2 -10 2 -19 9 -19 14 0 28 -13 28 -27 0 -6 9 -12 20 -14 11 -2 21 -7 23 -12 2 -6 13 -8 25 -5 18 4 19 3 7 -6 -12 -9 -9 -10 14 -5 16 4 27 3 23 -2 -3 -5 38 -9 93 -9 56 0 96 4 92 9 -3 5 11 6 34 3 29 -5 35 -4 24 4 -12 8 -9 10 12 6 17 -2 25 0 21 6 -4 6 2 8 15 5 14 -4 20 -2 15 5 -4 6 2 8 15 5 14 -4 20 -2 15 5 -4 7 0 8 11 4 11 -5 15 -3 10 5 -5 8 -2 9 10 5 11 -5 15 -3 10 5 -5 8 -2 9 10 5 10 -4 15 -3 11 3 -6 9 8 14 28 11 5 -1 5 4 1 10 -5 9 -2 10 9 6 9 -3 19 -1 23 5 4 7 3 8 -4 4 -7 -4 -12 -3 -12 3 0 10 29 23 41 18 4 -1 15 5 25 14 11 9 24 19 30 22 12 7 69 -40 69 -57 0 -6 8 -10 18 -8 10 2 16 -3 15 -10 -2 -8 4 -12 16 -10 10 2 15 -1 11 -7 -4 -7 0 -8 11 -4 12 4 15 3 10 -5 -5 -8 -1 -10 10 -5 12 4 15 3 10 -5 -5 -8 -1 -10 10 -5 11 4 15 3 11 -4 -5 -7 1 -9 15 -5 13 3 19 1 15 -5 -5 -7 1 -9 15 -5 13 3 19 1 15 -5 -4 -6 4 -8 21 -6 21 4 24 2 12 -6 -11 -8 -5 -9 24 -4 23 3 37 2 34 -3 -4 -5 36 -9 92 -9 54 0 93 4 87 8 -7 5 2 7 20 5 18 -3 29 0 26 5 -3 5 4 6 17 2 15 -5 20 -4 16 4 -7 10 6 16 27 12 5 -1 6 3 3 7 -6 10 32 50 41 44 3 -2 8 0 11 4 4 4 1 4 -5 0 -15 -9 -17 3 -3 24 8 12 10 12 10 1 0 -8 2 -12 4 -10 2 2 0 28 -3 57 -4 28 -4 52 1 52 4 0 8 5 8 11 0 5 -4 8 -9 5 -11 -7 -23 22 -15 35 3 5 2 8 -3 7 -5 -2 -21 9 -35 24 -14 15 -29 24 -33 20 -5 -4 -5 1 -2 10 4 12 2 15 -9 11 -7 -3 -14 -10 -14 -16 0 -6 -3 -7 -6 -4 -4 4 -1 13 6 22 11 13 10 14 -5 9 -13 -5 -16 -4 -11 4 5 8 1 10 -10 5 -12 -4 -15 -3 -10 5 4 7 2 12 -3 12 -6 0 -11 5 -11 11 0 6 9 9 20 6 13 -3 18 -1 13 6 -4 6 2 8 15 5 14 -4 20 -2 15 5 -4 7 0 8 11 4 11 -5 15 -3 10 5 -5 8 -2 9 9 5 17 -6 30 6 34 33 1 8 8 19 15 25 7 5 12 21 10 35 -2 20 -1 22 7 10 8 -11 11 -4 10 30 0 36 -2 41 -10 25 -7 -15 -8 -8 -5 24 3 33 2 41 -6 30 -7 -11 -9 -9 -5 9 3 14 1 20 -6 15 -7 -4 -8 0 -4 11 6 14 3 17 -9 12 -15 -6 -15 -4 -3 11 9 11 10 14 2 9 -12 -6 -17 4 -15 25 1 4 -8 15 -18 24 -11 10 -20 15 -20 10 0 -4 -7 -2 -15 5 -8 7 -21 10 -29 7 -10 -4 -13 -1 -9 9 3 7 0 14 -7 14 -6 0 -8 4 -5 10 4 6 -1 7 -11 3 -11 -4 -15 -2 -11 4 9 14 -18 24 -40 16 -9 -4 -14 -2 -10 3 3 6 -73 11 -206 12 -158 1 -205 -1 -184 -9 15 -6 24 -15 21 -21 -4 -6 -2 -8 4 -4 16 10 64 -58 55 -79 -5 -14 -3 -16 7 -10 10 6 12 3 8 -11 -3 -11 2 -26 9 -33 10 -9 13 -24 9 -45 -5 -24 -3 -27 5 -16 8 12 10 9 6 -12 -2 -17 0 -25 6 -21 7 4 8 -6 4 -28 -5 -26 -4 -30 4 -19 8 12 10 9 6 -12 -2 -17 0 -25 6 -21 7 4 8 -6 4 -28 -5 -26 -4 -30 4 -19 8 12 10 9 6 -12 -2 -17 0 -25 6 -21 6 4 8 -4 5 -20 -3 -16 -1 -24 5 -20 6 4 8 -4 5 -21 -4 -21 -3 -24 8 -15 11 9 11 5 4 -20 -6 -22 -5 -29 2 -25 7 5 9 -2 6 -19 -3 -16 -1 -24 5 -20 6 4 8 -4 5 -20 -3 -15 -1 -24 3 -21 17 10 9 -29 -8 -43 -10 -8 -13 -12 -6 -9 6 4 15 1 19 -5 4 -7 3 -9 -2 -6 -6 3 -16 2 -24 -4 -11 -6 -5 -9 20 -9 25 0 31 -3 21 -9 -10 -6 0 -8 30 -5 33 4 40 3 29 -5 -8 -6 -10 -11 -5 -11 16 0 31 13 38 33 5 12 3 16 -5 11 -7 -5 -9 0 -6 14 4 14 2 20 -4 16 -7 -5 -9 2 -6 19 3 16 1 24 -5 20 -6 -4 -8 4 -5 20 3 16 1 24 -5 20 -7 -4 -8 6 -4 28 5 26 4 30 -4 19 -8 -12 -10 -9 -6 12 2 15 0 25 -4 22 -5 -3 -8 6 -7 19 2 20 8 24 46 26 30 1 42 -2 37 -9 -4 -7 2 -9 18 -5 17 5 31 1 44 -12 11 -10 26 -19 34 -21 19 -5 75 -62 60 -62 -6 0 -2 -9 10 -21 14 -14 19 -29 16 -45 -2 -13 0 -21 4 -18 5 3 9 -9 9 -26 0 -17 -4 -29 -9 -26 -4 3 -6 -5 -4 -18 3 -13 0 -27 -6 -30 -7 -5 -9 0 -5 11 5 15 4 15 -4 3 -6 -8 -8 -18 -5 -22 8 -14 -19 -40 -34 -34 -9 4 -11 1 -7 -6 5 -8 2 -9 -10 -5 -11 5 -15 3 -10 -5 5 -7 0 -9 -14 -6 -12 4 -20 3 -18 -1 3 -4 -36 -7 -85 -8 -49 0 -86 3 -83 8 3 5 -10 6 -28 3 -26 -4 -30 -3 -18 5 12 9 8 10 -15 5 -24 -4 -27 -3 -15 6 12 9 10 10 -9 5 -15 -5 -21 -3 -17 3 4 6 -2 8 -16 4 -14 -3 -19 -1 -14 6 5 8 2 10 -9 6 -10 -4 -15 -2 -13 7 2 9 -4 13 -16 11 -10 -2 -15 1 -11 7 4 7 0 8 -10 5 -10 -4 -15 -2 -13 7 2 9 -4 13 -14 11 -10 -2 -18 3 -18 11 0 18 -28 42 -49 42 -9 0 -17 10 -19 24 -3 15 0 21 7 16 7 -3 11 -3 10 2 -3 19 2 34 9 29 5 -3 8 5 8 17 -1 12 4 21 11 20 8 -2 10 4 6 14 -4 11 -3 14 5 9 8 -5 10 -2 6 8 -3 9 -2 16 4 16 6 0 8 10 5 23 -4 17 -3 19 6 7 8 -11 9 -5 4 24 -3 23 -2 37 3 34 5 -4 9 20 9 53 1 32 -2 54 -6 48 -3 -6 -9 4 -13 21 -3 18 -3 37 1 43 4 6 1 7 -7 2 -10 -6 -12 -4 -7 8 3 9 0 18 -9 21 -8 3 -13 11 -12 18 2 7 -6 12 -17 13 -11 0 -19 5 -18 10 1 6 -11 10 -27 10 -15 0 -26 -3 -23 -7 4 -8 -13 -12 -32 -8 -5 1 -7 -2 -3 -5 10 -10 -11 -47 -22 -40 -6 4 -7 -1 -3 -11 4 -10 2 -15 -4 -11 -5 3 -9 -2 -9 -11 0 -9 -2 -30 -3 -47 -2 -23 -4 -26 -9 -12 -4 9 -7 -12 -7 -47 0 -36 4 -59 8 -53 5 7 7 -2 5 -20 -3 -19 0 -30 5 -26 6 4 7 -5 3 -23 -5 -23 -4 -26 5 -14 9 12 10 11 6 -8 -3 -14 -1 -20 6 -15 7 4 8 0 4 -11 -5 -11 -3 -15 4 -10 7 4 10 1 7 -7 -3 -8 2 -20 11 -27 13 -11 13 -12 1 -7 -10 4 -9 2 2 -8 10 -8 16 -17 13 -21 -3 -3 0 -2 7 4 15 13 20 42 5 33 -7 -4 -8 0 -4 11 5 11 3 15 -5 10 -8 -5 -9 -2 -5 10 5 11 3 15 -5 10 -8 -5 -9 -2 -5 10 5 11 3 15 -5 10 -8 -5 -9 -2 -5 10 5 11 3 15 -5 10 -8 -5 -9 2 -4 22 5 23 4 26 -4 14 -9 -11 -10 -6 -5 25 4 29 3 36 -4 25 -8 -11 -11 -6 -11 23 0 24 4 36 10 32 7 -4 8 3 4 21 -5 19 -4 25 4 20 8 -5 10 -1 5 10 -5 13 -3 15 7 9 8 -5 11 -4 7 1 -7 12 0 22 29 47 21 18 23 18 58 -14 22 -19 35 -38 32 -46 -3 -8 -2 -12 3 -9 12 8 21 -19 21 -65 0 -24 -4 -38 -10 -34 -6 4 -7 -6 -3 -26 4 -22 3 -30 -5 -26 -6 5 -8 -1 -4 -15 3 -14 1 -19 -6 -14 -8 5 -10 1 -5 -10 4 -12 3 -15 -5 -10 -8 5 -10 1 -5 -10 4 -12 3 -15 -5 -10 -8 5 -10 1 -5 -10 4 -12 3 -15 -5 -10 -8 5 -10 1 -5 -10 5 -13 3 -15 -7 -9 -8 5 -11 4 -6 -3 3 -6 0 -14 -8 -19 -8 -4 -25 -24 -38 -43 -13 -19 -30 -35 -38 -35 -8 0 -15 -7 -15 -15 0 -8 -9 -15 -20 -15 -11 -1 -19 -7 -17 -14 2 -8 -3 -11 -12 -8 -9 4 -15 1 -13 -5 1 -6 -4 -13 -12 -16 -9 -3 -11 0 -6 8 5 9 4 11 -4 6 -6 -4 -8 -12 -5 -18 4 -6 -1 -8 -16 -3 -17 5 -21 4 -15 -6 6 -9 3 -11 -9 -6 -11 5 -15 3 -10 -5 5 -8 2 -9 -9 -5 -10 3 -17 2 -17 -4 0 -6 -9 -8 -21 -4 -16 5 -19 4 -14 -5 6 -10 1 -11 -19 -6 -15 4 -25 3 -22 -2 3 -5 -35 -8 -84 -8 -49 0 -87 3 -84 7 2 4 -6 5 -18 1 -14 -3 -19 -1 -14 6 4 7 2 10 -6 7 -8 -3 -27 9 -43 26 -17 18 -24 29 -18 25 9 -5 11 -2 7 8 -3 9 -10 14 -14 11 -8 -5 -20 28 -20 58 0 11 5 15 11 11 8 -4 9 0 4 15 -9 28 3 63 18 54 7 -4 6 1 -2 10 -7 9 -10 17 -5 17 5 0 20 10 34 21 14 11 18 18 10 14 -8 -4 -4 3 9 14 12 12 28 18 34 14 6 -4 7 -1 2 7 -6 10 -4 12 9 7 9 -4 14 -3 11 2 -7 13 28 23 51 15 16 -5 17 -4 4 6 -12 9 -5 10 32 8 26 -2 44 1 41 6 -4 5 -1 6 5 2 7 -4 12 -18 12 -32 0 -14 -4 -23 -9 -20 -4 3 -6 -6 -3 -21 3 -16 1 -24 -5 -20 -6 4 -8 -4 -5 -20 3 -15 1 -24 -5 -20 -5 4 -8 -7 -5 -26 3 -25 1 -29 -8 -17 -8 12 -9 8 -4 -14 5 -19 3 -27 -4 -22 -6 4 -8 -2 -4 -16 3 -14 1 -19 -6 -14 -15 9 -3 -26 12 -36 17 -12 28 -9 20 3 -5 9 4 10 32 5 26 -5 34 -4 25 3 -11 7 -7 10 18 13 31 3 31 4 16 23 -9 11 -13 14 -9 6 5 -9 3 -12 -4 -7 -7 4 -12 19 -12 34 0 21 2 24 10 12 7 -11 8 -5 3 19 -4 22 -3 32 4 28 6 -4 8 4 5 20 -3 16 -1 24 5 20 6 -4 8 4 5 20 -3 16 -1 24 5 20 6 -4 8 4 5 20 -3 16 -1 24 5 20 6 -4 8 4 6 21 -4 21 -2 24 6 12 8 -11 10 -7 5 20 -4 27 -3 31 5 20 8 -11 9 -7 4 19 -4 22 -3 32 4 28 6 -4 8 4 6 21 -4 21 -2 24 6 12 8 -11 10 -7 5 20 -4 27 -3 31 5 20 8 -11 10 -7 5 20 -4 27 -3 31 5 20 8 -11 10 -7 5 20 -4 27 -3 32 5 20 9 -12 10 -9 5 14 -5 22 -4 27 6 21 9 -5 11 -4 6 4 -9 15 3 53 15 46 5 -3 7 8 5 24 -2 17 0 28 4 26 4 -3 14 3 21 12 8 9 27 22 44 29 26 12 7 13 -152 14 -100 0 -190 3 -200 6 -15 5 -16 4 -3 -6z m150 -21 c-11 -7 -4 -8 24 -3 28 5 37 4 32 -5 -4 -6 -1 -11 8 -11 9 0 16 -4 16 -9 0 -13 -26 -32 -34 -24 -4 4 -4 -1 0 -11 6 -15 4 -17 -6 -11 -9 5 -11 4 -6 -4 10 -15 -3 -53 -15 -45 -6 3 -7 -5 -3 -22 5 -21 4 -25 -6 -19 -9 5 -11 4 -6 -4 9 -14 -3 -73 -13 -66 -5 2 -6 -7 -3 -22 3 -16 1 -24 -5 -20 -6 4 -8 -4 -5 -20 3 -16 1 -24 -5 -20 -6 4 -8 -4 -5 -20 3 -17 1 -24 -6 -19 -6 4 -8 -2 -4 -16 3 -14 2 -19 -6 -14 -7 4 -12 1 -12 -8 0 -13 -12 -16 -56 -16 -36 0 -53 4 -49 10 4 7 -3 8 -21 4 -17 -4 -25 -3 -21 3 4 6 -3 9 -16 8 -12 -1 -32 9 -44 22 -12 13 -20 23 -17 23 3 0 2 6 -3 13 -9 14 -11 147 -1 141 3 -2 4 6 0 18 -3 14 -1 19 6 14 8 -5 10 -1 5 10 -4 12 -3 15 5 10 8 -5 10 -1 5 10 -5 13 -3 15 7 9 8 -5 11 -4 7 2 -4 6 1 19 11 30 9 10 13 13 8 6 -14 -21 -1 -15 20 9 10 12 13 18 7 14 -7 -4 -13 -3 -13 2 0 13 29 24 42 15 7 -4 8 -1 3 7 -6 10 -4 12 10 6 16 -6 16 -4 4 11 -8 9 -9 14 -3 10 6 -3 24 -2 40 3 43 12 143 12 124 -1z m645 1 c-4 -7 2 -9 19 -4 49 12 182 -93 160 -127 -4 -7 -3 -9 3 -6 14 9 24 -18 16 -40 -4 -10 -2 -14 4 -10 14 9 26 -56 18 -94 -4 -16 -11 -26 -17 -23 -6 4 -8 -1 -4 -13 4 -13 -1 -26 -16 -39 -14 -12 -19 -14 -14 -4 5 8 -3 2 -16 -14 -21 -25 -29 -28 -59 -22 -25 6 -30 5 -19 -4 11 -8 -1 -10 -50 -8 l-65 3 2 34 c1 20 -2 29 -7 22 -5 -9 -10 0 -14 23 -4 20 -4 41 0 48 5 7 3 8 -6 3 -10 -6 -12 -1 -8 18 3 16 1 24 -5 20 -6 -4 -8 4 -5 20 3 16 1 24 -5 20 -6 -4 -7 5 -3 23 5 23 4 26 -5 14 -8 -12 -9 -9 -4 13 4 21 3 27 -6 21 -9 -5 -10 -2 -6 9 4 10 2 17 -4 17 -6 0 -8 7 -5 16 4 10 2 13 -6 8 -8 -5 -9 -2 -5 10 4 9 3 15 -1 13 -4 -3 -16 4 -27 15 -11 11 -15 19 -10 18 22 -5 36 1 29 11 -5 9 4 10 32 5 28 -5 35 -4 24 3 -11 8 -1 11 38 11 34 0 51 -4 47 -10z m-170 -50 c3 -5 4 -10 1 -10 -3 0 -8 5 -11 10 -3 6 -4 10 -1 10 3 0 8 -4 11 -10z m-795 -24 c0 -3 -5 -8 -12 -12 -7 -4 -8 -3 -4 4 7 12 16 16 16 8z m1221 -13 c13 -16 12 -17 -3 -4 -17 13 -22 21 -14 21 2 0 10 -8 17 -17z m-1171 -7 c0 -3 -5 -8 -12 -12 -7 -4 -8 -3 -4 4 7 12 16 16 16 8z m-43 -53 c-4 -3 -7 0 -7 7 0 7 3 10 7 7 3 -4 3 -10 0 -14z m10 -115 c-3 -8 -6 -5 -6 6 -1 11 2 17 5 13 3 -3 4 -12 1 -19z m-47 -112 c0 -3 -5 -8 -12 -12 -7 -4 -8 -3 -4 4 7 12 16 16 16 8z m1280 -10 c0 -3 -5 -8 -12 -12 -7 -4 -8 -3 -4 4 7 12 16 16 16 8z m-1253 -123 c-4 -3 -7 0 -7 7 0 7 3 10 7 7 3 -4 3 -10 0 -14z m612 -136 c-2 -1 -15 -11 -29 -22 l-25 -20 19 23 c11 12 24 22 29 22 6 0 8 -1 6 -3z m62 -24 c13 -16 12 -17 -3 -4 -10 7 -18 15 -18 17 0 8 8 3 21 -13z m-494 -139 c-3 -3 -12 -4 -19 -1 -8 3 -5 6 6 6 11 1 17 -2 13 -5z m30 -1 c-4 -3 -10 -3 -14 0 -3 4 0 7 7 7 7 0 10 -3 7 -7z m830 1 c-3 -3 -12 -4 -19 -1 -8 3 -5 6 6 6 11 1 17 -2 13 -5z"/>
 <path d="M448 873 c7 -3 16 -2 19 1 4 3 -2 6 -13 5 -11 0 -14 -3 -6 -6z"/>
 <path d="M403 863 c4 -3 10 -3 14 0 3 4 0 7 -7 7 -7 0 -10 -3 -7 -7z"/>
 <path d="M530 680 c0 -7 3 -10 7 -7 3 4 3 10 0 14 -4 3 -7 0 -7 -7z"/>
 <path d="M250 570 c0 -7 3 -10 7 -7 3 4 3 10 0 14 -4 3 -7 0 -7 -7z"/>
 <path d="M270 536 c0 -2 8 -10 18 -17 15 -13 16 -12 3 4 -13 16 -21 21 -21 13z"/>
 <path d="M1223 863 c4 -3 10 -3 14 0 3 4 0 7 -7 7 -7 0 -10 -3 -7 -7z"/>
 <path d="M1315 810 c10 -11 20 -20 23 -20 3 0 -3 9 -13 20 -10 11 -20 20 -23 20 -3 0 3 -9 13 -20z"/>
 <path d="M1391 644 c0 -11 3 -14 6 -6 3 7 2 16 -1 19 -3 4 -6 -2 -5 -13z"/>
 <path d="M1390 610 c0 -7 3 -10 7 -7 3 4 3 10 0 14 -4 3 -7 0 -7 -7z"/>
 <path d="M1130 570 c0 -7 3 -10 7 -7 3 4 3 10 0 14 -4 3 -7 0 -7 -7z"/>
 <path d="M1310 500 c-9 -6 -10 -10 -3 -10 6 0 15 5 18 10 8 12 4 12 -15 0z"/>
 <path d="M1243 903 c4 -3 10 -3 14 0 3 4 0 7 -7 7 -7 0 -10 -3 -7 -7z"/>
 <path d="M323 883 c4 -3 10 -3 14 0 3 4 0 7 -7 7 -7 0 -10 -3 -7 -7z"/>
 <path d="M704 848 l-19 -23 23 19 c21 18 27 26 19 26 -2 0 -12 -10 -23 -22z"/>
 <path d="M990 710 c0 -7 3 -10 7 -7 3 4 3 10 0 14 -4 3 -7 0 -7 -7z"/>
 <path d="M804 638 c-4 -7 -3 -8 4 -4 12 7 16 16 8 16 -3 0 -8 -5 -12 -12z"/>
 <path d="M835 630 c3 -5 8 -10 11 -10 3 0 2 5 -1 10 -3 6 -8 10 -11 10 -3 0 -2 -4 1 -10z"/>
 <path d="M865 600 c3 -5 8 -10 11 -10 3 0 2 5 -1 10 -3 6 -8 10 -11 10 -3 0 -2 -4 1 -10z"/>
 <path d="M890 540 c0 -7 3 -10 7 -7 3 4 3 10 0 14 -4 3 -7 0 -7 -7z"/>
 <path d="M1355 380 c3 -5 8 -10 11 -10 3 0 2 5 -1 10 -3 6 -8 10 -11 10 -3 0 -2 -4 1 -10z"/>
 <path d="M244 338 c-4 -7 -3 -8 4 -4 7 4 12 9 12 12 0 8 -9 4 -16 -8z"/>
 <path d="M220 290 c0 -7 3 -10 7 -7 3 4 3 10 0 14 -4 3 -7 0 -7 -7z"/>
 <path d="M210 210 c0 -7 3 -10 7 -7 3 4 3 10 0 14 -4 3 -7 0 -7 -7z"/>
 </g>

</svg>